%TF.GenerationSoftware,KiCad,Pcbnew,9.0.1*%
%TF.CreationDate,2025-07-29T22:47:00+03:00*%
%TF.ProjectId,Ras pi hat,52617320-7069-4206-9861-742e6b696361,rev?*%
%TF.SameCoordinates,Original*%
%TF.FileFunction,Drillmap*%
%TF.FilePolarity,Positive*%
%FSLAX45Y45*%
G04 Gerber Fmt 4.5, Leading zero omitted, Abs format (unit mm)*
G04 Created by KiCad (PCBNEW 9.0.1) date 2025-07-29 22:47:00*
%MOMM*%
%LPD*%
G01*
G04 APERTURE LIST*
%ADD10C,0.050000*%
%ADD11C,0.200000*%
G04 APERTURE END LIST*
D10*
X15290800Y-4800600D02*
X20929600Y-4800600D01*
X20929600Y-12065000D01*
X15290800Y-12065000D01*
X15290800Y-4800600D01*
D11*
X15549077Y-12378984D02*
X15549077Y-12178984D01*
X15549077Y-12178984D02*
X15596696Y-12178984D01*
X15596696Y-12178984D02*
X15625267Y-12188508D01*
X15625267Y-12188508D02*
X15644315Y-12207555D01*
X15644315Y-12207555D02*
X15653839Y-12226603D01*
X15653839Y-12226603D02*
X15663362Y-12264698D01*
X15663362Y-12264698D02*
X15663362Y-12293269D01*
X15663362Y-12293269D02*
X15653839Y-12331365D01*
X15653839Y-12331365D02*
X15644315Y-12350412D01*
X15644315Y-12350412D02*
X15625267Y-12369460D01*
X15625267Y-12369460D02*
X15596696Y-12378984D01*
X15596696Y-12378984D02*
X15549077Y-12378984D01*
X15749077Y-12378984D02*
X15749077Y-12245650D01*
X15749077Y-12283746D02*
X15758601Y-12264698D01*
X15758601Y-12264698D02*
X15768124Y-12255174D01*
X15768124Y-12255174D02*
X15787172Y-12245650D01*
X15787172Y-12245650D02*
X15806220Y-12245650D01*
X15872886Y-12378984D02*
X15872886Y-12245650D01*
X15872886Y-12178984D02*
X15863362Y-12188508D01*
X15863362Y-12188508D02*
X15872886Y-12198031D01*
X15872886Y-12198031D02*
X15882410Y-12188508D01*
X15882410Y-12188508D02*
X15872886Y-12178984D01*
X15872886Y-12178984D02*
X15872886Y-12198031D01*
X15996696Y-12378984D02*
X15977648Y-12369460D01*
X15977648Y-12369460D02*
X15968124Y-12350412D01*
X15968124Y-12350412D02*
X15968124Y-12178984D01*
X16101458Y-12378984D02*
X16082410Y-12369460D01*
X16082410Y-12369460D02*
X16072886Y-12350412D01*
X16072886Y-12350412D02*
X16072886Y-12178984D01*
X16330029Y-12378984D02*
X16330029Y-12178984D01*
X16330029Y-12178984D02*
X16396696Y-12321841D01*
X16396696Y-12321841D02*
X16463362Y-12178984D01*
X16463362Y-12178984D02*
X16463362Y-12378984D01*
X16644315Y-12378984D02*
X16644315Y-12274222D01*
X16644315Y-12274222D02*
X16634791Y-12255174D01*
X16634791Y-12255174D02*
X16615743Y-12245650D01*
X16615743Y-12245650D02*
X16577648Y-12245650D01*
X16577648Y-12245650D02*
X16558601Y-12255174D01*
X16644315Y-12369460D02*
X16625267Y-12378984D01*
X16625267Y-12378984D02*
X16577648Y-12378984D01*
X16577648Y-12378984D02*
X16558601Y-12369460D01*
X16558601Y-12369460D02*
X16549077Y-12350412D01*
X16549077Y-12350412D02*
X16549077Y-12331365D01*
X16549077Y-12331365D02*
X16558601Y-12312317D01*
X16558601Y-12312317D02*
X16577648Y-12302793D01*
X16577648Y-12302793D02*
X16625267Y-12302793D01*
X16625267Y-12302793D02*
X16644315Y-12293269D01*
X16739553Y-12245650D02*
X16739553Y-12445650D01*
X16739553Y-12255174D02*
X16758601Y-12245650D01*
X16758601Y-12245650D02*
X16796696Y-12245650D01*
X16796696Y-12245650D02*
X16815744Y-12255174D01*
X16815744Y-12255174D02*
X16825267Y-12264698D01*
X16825267Y-12264698D02*
X16834791Y-12283746D01*
X16834791Y-12283746D02*
X16834791Y-12340888D01*
X16834791Y-12340888D02*
X16825267Y-12359936D01*
X16825267Y-12359936D02*
X16815744Y-12369460D01*
X16815744Y-12369460D02*
X16796696Y-12378984D01*
X16796696Y-12378984D02*
X16758601Y-12378984D01*
X16758601Y-12378984D02*
X16739553Y-12369460D01*
X16920505Y-12359936D02*
X16930029Y-12369460D01*
X16930029Y-12369460D02*
X16920505Y-12378984D01*
X16920505Y-12378984D02*
X16910982Y-12369460D01*
X16910982Y-12369460D02*
X16920505Y-12359936D01*
X16920505Y-12359936D02*
X16920505Y-12378984D01*
X16920505Y-12255174D02*
X16930029Y-12264698D01*
X16930029Y-12264698D02*
X16920505Y-12274222D01*
X16920505Y-12274222D02*
X16910982Y-12264698D01*
X16910982Y-12264698D02*
X16920505Y-12255174D01*
X16920505Y-12255174D02*
X16920505Y-12274222D01*
M02*
