%TF.GenerationSoftware,KiCad,Pcbnew,9.0.1*%
%TF.CreationDate,2025-07-29T22:47:00+03:00*%
%TF.ProjectId,Ras pi hat,52617320-7069-4206-9861-742e6b696361,rev?*%
%TF.SameCoordinates,Original*%
%TF.FileFunction,Drillmap*%
%TF.FilePolarity,Positive*%
%FSLAX45Y45*%
G04 Gerber Fmt 4.5, Leading zero omitted, Abs format (unit mm)*
G04 Created by KiCad (PCBNEW 9.0.1) date 2025-07-29 22:47:00*
%MOMM*%
%LPD*%
G01*
G04 APERTURE LIST*
%ADD10C,0.050000*%
%ADD11C,0.200000*%
%ADD12C,0.100000*%
%ADD13C,0.140000*%
G04 APERTURE END LIST*
D10*
X15290800Y-4800600D02*
X20929600Y-4800600D01*
X20929600Y-12065000D01*
X15290800Y-12065000D01*
X15290800Y-4800600D01*
D11*
D12*
X17409800Y-9306700D02*
X17489800Y-9386700D01*
X17489800Y-9306700D02*
X17409800Y-9386700D01*
X17409800Y-10068700D02*
X17489800Y-10148700D01*
X17489800Y-10068700D02*
X17409800Y-10148700D01*
X17663800Y-9306700D02*
X17743800Y-9386700D01*
X17743800Y-9306700D02*
X17663800Y-9386700D01*
X17663800Y-10068700D02*
X17743800Y-10148700D01*
X17743800Y-10068700D02*
X17663800Y-10148700D01*
X17917800Y-9306700D02*
X17997800Y-9386700D01*
X17997800Y-9306700D02*
X17917800Y-9386700D01*
X17917800Y-10068700D02*
X17997800Y-10148700D01*
X17997800Y-10068700D02*
X17917800Y-10148700D01*
X18171800Y-9306700D02*
X18251800Y-9386700D01*
X18251800Y-9306700D02*
X18171800Y-9386700D01*
X18171800Y-10068700D02*
X18251800Y-10148700D01*
X18251800Y-10068700D02*
X18171800Y-10148700D01*
X18425800Y-9306700D02*
X18505800Y-9386700D01*
X18505800Y-9306700D02*
X18425800Y-9386700D01*
X18425800Y-10068700D02*
X18505800Y-10148700D01*
X18505800Y-10068700D02*
X18425800Y-10148700D01*
X18679800Y-9306700D02*
X18759800Y-9386700D01*
X18759800Y-9306700D02*
X18679800Y-9386700D01*
X18679800Y-10068700D02*
X18759800Y-10148700D01*
X18759800Y-10068700D02*
X18679800Y-10148700D01*
X18933800Y-9306700D02*
X19013800Y-9386700D01*
X19013800Y-9306700D02*
X18933800Y-9386700D01*
X18933800Y-10068700D02*
X19013800Y-10148700D01*
X19013800Y-10068700D02*
X18933800Y-10148700D01*
X19187800Y-9306700D02*
X19267800Y-9386700D01*
X19267800Y-9306700D02*
X19187800Y-9386700D01*
X19187800Y-10068700D02*
X19267800Y-10148700D01*
X19267800Y-10068700D02*
X19187800Y-10148700D01*
X17322000Y-5435600D02*
G75*
G02*
X17222000Y-5435600I-50000J0D01*
G01*
X17222000Y-5435600D02*
G75*
G02*
X17322000Y-5435600I50000J0D01*
G01*
X17576000Y-5435600D02*
G75*
G02*
X17476000Y-5435600I-50000J0D01*
G01*
X17476000Y-5435600D02*
G75*
G02*
X17576000Y-5435600I50000J0D01*
G01*
X17830000Y-5435600D02*
G75*
G02*
X17730000Y-5435600I-50000J0D01*
G01*
X17730000Y-5435600D02*
G75*
G02*
X17830000Y-5435600I50000J0D01*
G01*
X18084000Y-5435600D02*
G75*
G02*
X17984000Y-5435600I-50000J0D01*
G01*
X17984000Y-5435600D02*
G75*
G02*
X18084000Y-5435600I50000J0D01*
G01*
X19328600Y-7594600D02*
G75*
G02*
X19228600Y-7594600I-50000J0D01*
G01*
X19228600Y-7594600D02*
G75*
G02*
X19328600Y-7594600I50000J0D01*
G01*
X19328600Y-8255000D02*
G75*
G02*
X19228600Y-8255000I-50000J0D01*
G01*
X19228600Y-8255000D02*
G75*
G02*
X19328600Y-8255000I50000J0D01*
G01*
X19582600Y-7594600D02*
G75*
G02*
X19482600Y-7594600I-50000J0D01*
G01*
X19482600Y-7594600D02*
G75*
G02*
X19582600Y-7594600I50000J0D01*
G01*
X19582600Y-8255000D02*
G75*
G02*
X19482600Y-8255000I-50000J0D01*
G01*
X19482600Y-8255000D02*
G75*
G02*
X19582600Y-8255000I50000J0D01*
G01*
X20141400Y-5537200D02*
G75*
G02*
X20041400Y-5537200I-50000J0D01*
G01*
X20041400Y-5537200D02*
G75*
G02*
X20141400Y-5537200I50000J0D01*
G01*
X20141400Y-5791200D02*
G75*
G02*
X20041400Y-5791200I-50000J0D01*
G01*
X20041400Y-5791200D02*
G75*
G02*
X20141400Y-5791200I50000J0D01*
G01*
X20141400Y-6045200D02*
G75*
G02*
X20041400Y-6045200I-50000J0D01*
G01*
X20041400Y-6045200D02*
G75*
G02*
X20141400Y-6045200I50000J0D01*
G01*
X20141400Y-6299200D02*
G75*
G02*
X20041400Y-6299200I-50000J0D01*
G01*
X20041400Y-6299200D02*
G75*
G02*
X20141400Y-6299200I50000J0D01*
G01*
X20141400Y-6553200D02*
G75*
G02*
X20041400Y-6553200I-50000J0D01*
G01*
X20041400Y-6553200D02*
G75*
G02*
X20141400Y-6553200I50000J0D01*
G01*
X20141400Y-6807200D02*
G75*
G02*
X20041400Y-6807200I-50000J0D01*
G01*
X20041400Y-6807200D02*
G75*
G02*
X20141400Y-6807200I50000J0D01*
G01*
X20141400Y-7061200D02*
G75*
G02*
X20041400Y-7061200I-50000J0D01*
G01*
X20041400Y-7061200D02*
G75*
G02*
X20141400Y-7061200I50000J0D01*
G01*
X20141400Y-7315200D02*
G75*
G02*
X20041400Y-7315200I-50000J0D01*
G01*
X20041400Y-7315200D02*
G75*
G02*
X20141400Y-7315200I50000J0D01*
G01*
X20141400Y-7569200D02*
G75*
G02*
X20041400Y-7569200I-50000J0D01*
G01*
X20041400Y-7569200D02*
G75*
G02*
X20141400Y-7569200I50000J0D01*
G01*
X20141400Y-7823200D02*
G75*
G02*
X20041400Y-7823200I-50000J0D01*
G01*
X20041400Y-7823200D02*
G75*
G02*
X20141400Y-7823200I50000J0D01*
G01*
X20141400Y-8077200D02*
G75*
G02*
X20041400Y-8077200I-50000J0D01*
G01*
X20041400Y-8077200D02*
G75*
G02*
X20141400Y-8077200I50000J0D01*
G01*
X20141400Y-8331200D02*
G75*
G02*
X20041400Y-8331200I-50000J0D01*
G01*
X20041400Y-8331200D02*
G75*
G02*
X20141400Y-8331200I50000J0D01*
G01*
X20141400Y-8585200D02*
G75*
G02*
X20041400Y-8585200I-50000J0D01*
G01*
X20041400Y-8585200D02*
G75*
G02*
X20141400Y-8585200I50000J0D01*
G01*
X20141400Y-8839200D02*
G75*
G02*
X20041400Y-8839200I-50000J0D01*
G01*
X20041400Y-8839200D02*
G75*
G02*
X20141400Y-8839200I50000J0D01*
G01*
X20141400Y-9093200D02*
G75*
G02*
X20041400Y-9093200I-50000J0D01*
G01*
X20041400Y-9093200D02*
G75*
G02*
X20141400Y-9093200I50000J0D01*
G01*
X20141400Y-9347200D02*
G75*
G02*
X20041400Y-9347200I-50000J0D01*
G01*
X20041400Y-9347200D02*
G75*
G02*
X20141400Y-9347200I50000J0D01*
G01*
X20141400Y-9601200D02*
G75*
G02*
X20041400Y-9601200I-50000J0D01*
G01*
X20041400Y-9601200D02*
G75*
G02*
X20141400Y-9601200I50000J0D01*
G01*
X20141400Y-9855200D02*
G75*
G02*
X20041400Y-9855200I-50000J0D01*
G01*
X20041400Y-9855200D02*
G75*
G02*
X20141400Y-9855200I50000J0D01*
G01*
X20141400Y-10109200D02*
G75*
G02*
X20041400Y-10109200I-50000J0D01*
G01*
X20041400Y-10109200D02*
G75*
G02*
X20141400Y-10109200I50000J0D01*
G01*
X20141400Y-10363200D02*
G75*
G02*
X20041400Y-10363200I-50000J0D01*
G01*
X20041400Y-10363200D02*
G75*
G02*
X20141400Y-10363200I50000J0D01*
G01*
X20395400Y-5537200D02*
G75*
G02*
X20295400Y-5537200I-50000J0D01*
G01*
X20295400Y-5537200D02*
G75*
G02*
X20395400Y-5537200I50000J0D01*
G01*
X20395400Y-5791200D02*
G75*
G02*
X20295400Y-5791200I-50000J0D01*
G01*
X20295400Y-5791200D02*
G75*
G02*
X20395400Y-5791200I50000J0D01*
G01*
X20395400Y-6045200D02*
G75*
G02*
X20295400Y-6045200I-50000J0D01*
G01*
X20295400Y-6045200D02*
G75*
G02*
X20395400Y-6045200I50000J0D01*
G01*
X20395400Y-6299200D02*
G75*
G02*
X20295400Y-6299200I-50000J0D01*
G01*
X20295400Y-6299200D02*
G75*
G02*
X20395400Y-6299200I50000J0D01*
G01*
X20395400Y-6553200D02*
G75*
G02*
X20295400Y-6553200I-50000J0D01*
G01*
X20295400Y-6553200D02*
G75*
G02*
X20395400Y-6553200I50000J0D01*
G01*
X20395400Y-6807200D02*
G75*
G02*
X20295400Y-6807200I-50000J0D01*
G01*
X20295400Y-6807200D02*
G75*
G02*
X20395400Y-6807200I50000J0D01*
G01*
X20395400Y-7061200D02*
G75*
G02*
X20295400Y-7061200I-50000J0D01*
G01*
X20295400Y-7061200D02*
G75*
G02*
X20395400Y-7061200I50000J0D01*
G01*
X20395400Y-7315200D02*
G75*
G02*
X20295400Y-7315200I-50000J0D01*
G01*
X20295400Y-7315200D02*
G75*
G02*
X20395400Y-7315200I50000J0D01*
G01*
X20395400Y-7569200D02*
G75*
G02*
X20295400Y-7569200I-50000J0D01*
G01*
X20295400Y-7569200D02*
G75*
G02*
X20395400Y-7569200I50000J0D01*
G01*
X20395400Y-7823200D02*
G75*
G02*
X20295400Y-7823200I-50000J0D01*
G01*
X20295400Y-7823200D02*
G75*
G02*
X20395400Y-7823200I50000J0D01*
G01*
X20395400Y-8077200D02*
G75*
G02*
X20295400Y-8077200I-50000J0D01*
G01*
X20295400Y-8077200D02*
G75*
G02*
X20395400Y-8077200I50000J0D01*
G01*
X20395400Y-8331200D02*
G75*
G02*
X20295400Y-8331200I-50000J0D01*
G01*
X20295400Y-8331200D02*
G75*
G02*
X20395400Y-8331200I50000J0D01*
G01*
X20395400Y-8585200D02*
G75*
G02*
X20295400Y-8585200I-50000J0D01*
G01*
X20295400Y-8585200D02*
G75*
G02*
X20395400Y-8585200I50000J0D01*
G01*
X20395400Y-8839200D02*
G75*
G02*
X20295400Y-8839200I-50000J0D01*
G01*
X20295400Y-8839200D02*
G75*
G02*
X20395400Y-8839200I50000J0D01*
G01*
X20395400Y-9093200D02*
G75*
G02*
X20295400Y-9093200I-50000J0D01*
G01*
X20295400Y-9093200D02*
G75*
G02*
X20395400Y-9093200I50000J0D01*
G01*
X20395400Y-9347200D02*
G75*
G02*
X20295400Y-9347200I-50000J0D01*
G01*
X20295400Y-9347200D02*
G75*
G02*
X20395400Y-9347200I50000J0D01*
G01*
X20395400Y-9601200D02*
G75*
G02*
X20295400Y-9601200I-50000J0D01*
G01*
X20295400Y-9601200D02*
G75*
G02*
X20395400Y-9601200I50000J0D01*
G01*
X20395400Y-9855200D02*
G75*
G02*
X20295400Y-9855200I-50000J0D01*
G01*
X20295400Y-9855200D02*
G75*
G02*
X20395400Y-9855200I50000J0D01*
G01*
X20395400Y-10109200D02*
G75*
G02*
X20295400Y-10109200I-50000J0D01*
G01*
X20295400Y-10109200D02*
G75*
G02*
X20395400Y-10109200I50000J0D01*
G01*
X20395400Y-10363200D02*
G75*
G02*
X20295400Y-10363200I-50000J0D01*
G01*
X20295400Y-10363200D02*
G75*
G02*
X20395400Y-10363200I50000J0D01*
G01*
D13*
X16217350Y-9430100D02*
X16217350Y-9570100D01*
X16147350Y-9500100D02*
X16287350Y-9500100D01*
X16217350Y-9938100D02*
X16217350Y-10078100D01*
X16147350Y-10008100D02*
X16287350Y-10008100D01*
X17423400Y-10940350D02*
X17423400Y-11080350D01*
X17353400Y-11010350D02*
X17493400Y-11010350D01*
X17931400Y-10940350D02*
X17931400Y-11080350D01*
X17861400Y-11010350D02*
X18001400Y-11010350D01*
X18719800Y-10953600D02*
X18719800Y-11093600D01*
X18649800Y-11023600D02*
X18789800Y-11023600D01*
X19227800Y-10953600D02*
X19227800Y-11093600D01*
X19157800Y-11023600D02*
X19297800Y-11023600D01*
D11*
X15549077Y-12378984D02*
X15549077Y-12178984D01*
X15549077Y-12178984D02*
X15596696Y-12178984D01*
X15596696Y-12178984D02*
X15625267Y-12188508D01*
X15625267Y-12188508D02*
X15644315Y-12207555D01*
X15644315Y-12207555D02*
X15653839Y-12226603D01*
X15653839Y-12226603D02*
X15663362Y-12264698D01*
X15663362Y-12264698D02*
X15663362Y-12293269D01*
X15663362Y-12293269D02*
X15653839Y-12331365D01*
X15653839Y-12331365D02*
X15644315Y-12350412D01*
X15644315Y-12350412D02*
X15625267Y-12369460D01*
X15625267Y-12369460D02*
X15596696Y-12378984D01*
X15596696Y-12378984D02*
X15549077Y-12378984D01*
X15749077Y-12378984D02*
X15749077Y-12245650D01*
X15749077Y-12283746D02*
X15758601Y-12264698D01*
X15758601Y-12264698D02*
X15768124Y-12255174D01*
X15768124Y-12255174D02*
X15787172Y-12245650D01*
X15787172Y-12245650D02*
X15806220Y-12245650D01*
X15872886Y-12378984D02*
X15872886Y-12245650D01*
X15872886Y-12178984D02*
X15863362Y-12188508D01*
X15863362Y-12188508D02*
X15872886Y-12198031D01*
X15872886Y-12198031D02*
X15882410Y-12188508D01*
X15882410Y-12188508D02*
X15872886Y-12178984D01*
X15872886Y-12178984D02*
X15872886Y-12198031D01*
X15996696Y-12378984D02*
X15977648Y-12369460D01*
X15977648Y-12369460D02*
X15968124Y-12350412D01*
X15968124Y-12350412D02*
X15968124Y-12178984D01*
X16101458Y-12378984D02*
X16082410Y-12369460D01*
X16082410Y-12369460D02*
X16072886Y-12350412D01*
X16072886Y-12350412D02*
X16072886Y-12178984D01*
X16330029Y-12378984D02*
X16330029Y-12178984D01*
X16330029Y-12178984D02*
X16396696Y-12321841D01*
X16396696Y-12321841D02*
X16463362Y-12178984D01*
X16463362Y-12178984D02*
X16463362Y-12378984D01*
X16644315Y-12378984D02*
X16644315Y-12274222D01*
X16644315Y-12274222D02*
X16634791Y-12255174D01*
X16634791Y-12255174D02*
X16615743Y-12245650D01*
X16615743Y-12245650D02*
X16577648Y-12245650D01*
X16577648Y-12245650D02*
X16558601Y-12255174D01*
X16644315Y-12369460D02*
X16625267Y-12378984D01*
X16625267Y-12378984D02*
X16577648Y-12378984D01*
X16577648Y-12378984D02*
X16558601Y-12369460D01*
X16558601Y-12369460D02*
X16549077Y-12350412D01*
X16549077Y-12350412D02*
X16549077Y-12331365D01*
X16549077Y-12331365D02*
X16558601Y-12312317D01*
X16558601Y-12312317D02*
X16577648Y-12302793D01*
X16577648Y-12302793D02*
X16625267Y-12302793D01*
X16625267Y-12302793D02*
X16644315Y-12293269D01*
X16739553Y-12245650D02*
X16739553Y-12445650D01*
X16739553Y-12255174D02*
X16758601Y-12245650D01*
X16758601Y-12245650D02*
X16796696Y-12245650D01*
X16796696Y-12245650D02*
X16815744Y-12255174D01*
X16815744Y-12255174D02*
X16825267Y-12264698D01*
X16825267Y-12264698D02*
X16834791Y-12283746D01*
X16834791Y-12283746D02*
X16834791Y-12340888D01*
X16834791Y-12340888D02*
X16825267Y-12359936D01*
X16825267Y-12359936D02*
X16815744Y-12369460D01*
X16815744Y-12369460D02*
X16796696Y-12378984D01*
X16796696Y-12378984D02*
X16758601Y-12378984D01*
X16758601Y-12378984D02*
X16739553Y-12369460D01*
X16920505Y-12359936D02*
X16930029Y-12369460D01*
X16930029Y-12369460D02*
X16920505Y-12378984D01*
X16920505Y-12378984D02*
X16910982Y-12369460D01*
X16910982Y-12369460D02*
X16920505Y-12359936D01*
X16920505Y-12359936D02*
X16920505Y-12378984D01*
X16920505Y-12255174D02*
X16930029Y-12264698D01*
X16930029Y-12264698D02*
X16920505Y-12274222D01*
X16920505Y-12274222D02*
X16910982Y-12264698D01*
X16910982Y-12264698D02*
X16920505Y-12255174D01*
X16920505Y-12255174D02*
X16920505Y-12274222D01*
D12*
X15208300Y-12667500D02*
X15288300Y-12747500D01*
X15288300Y-12667500D02*
X15208300Y-12747500D01*
D11*
X15587172Y-12598984D02*
X15606220Y-12598984D01*
X15606220Y-12598984D02*
X15625267Y-12608508D01*
X15625267Y-12608508D02*
X15634791Y-12618031D01*
X15634791Y-12618031D02*
X15644315Y-12637079D01*
X15644315Y-12637079D02*
X15653839Y-12675174D01*
X15653839Y-12675174D02*
X15653839Y-12722793D01*
X15653839Y-12722793D02*
X15644315Y-12760888D01*
X15644315Y-12760888D02*
X15634791Y-12779936D01*
X15634791Y-12779936D02*
X15625267Y-12789460D01*
X15625267Y-12789460D02*
X15606220Y-12798984D01*
X15606220Y-12798984D02*
X15587172Y-12798984D01*
X15587172Y-12798984D02*
X15568124Y-12789460D01*
X15568124Y-12789460D02*
X15558601Y-12779936D01*
X15558601Y-12779936D02*
X15549077Y-12760888D01*
X15549077Y-12760888D02*
X15539553Y-12722793D01*
X15539553Y-12722793D02*
X15539553Y-12675174D01*
X15539553Y-12675174D02*
X15549077Y-12637079D01*
X15549077Y-12637079D02*
X15558601Y-12618031D01*
X15558601Y-12618031D02*
X15568124Y-12608508D01*
X15568124Y-12608508D02*
X15587172Y-12598984D01*
X15739553Y-12779936D02*
X15749077Y-12789460D01*
X15749077Y-12789460D02*
X15739553Y-12798984D01*
X15739553Y-12798984D02*
X15730029Y-12789460D01*
X15730029Y-12789460D02*
X15739553Y-12779936D01*
X15739553Y-12779936D02*
X15739553Y-12798984D01*
X15863362Y-12684698D02*
X15844315Y-12675174D01*
X15844315Y-12675174D02*
X15834791Y-12665650D01*
X15834791Y-12665650D02*
X15825267Y-12646603D01*
X15825267Y-12646603D02*
X15825267Y-12637079D01*
X15825267Y-12637079D02*
X15834791Y-12618031D01*
X15834791Y-12618031D02*
X15844315Y-12608508D01*
X15844315Y-12608508D02*
X15863362Y-12598984D01*
X15863362Y-12598984D02*
X15901458Y-12598984D01*
X15901458Y-12598984D02*
X15920505Y-12608508D01*
X15920505Y-12608508D02*
X15930029Y-12618031D01*
X15930029Y-12618031D02*
X15939553Y-12637079D01*
X15939553Y-12637079D02*
X15939553Y-12646603D01*
X15939553Y-12646603D02*
X15930029Y-12665650D01*
X15930029Y-12665650D02*
X15920505Y-12675174D01*
X15920505Y-12675174D02*
X15901458Y-12684698D01*
X15901458Y-12684698D02*
X15863362Y-12684698D01*
X15863362Y-12684698D02*
X15844315Y-12694222D01*
X15844315Y-12694222D02*
X15834791Y-12703746D01*
X15834791Y-12703746D02*
X15825267Y-12722793D01*
X15825267Y-12722793D02*
X15825267Y-12760888D01*
X15825267Y-12760888D02*
X15834791Y-12779936D01*
X15834791Y-12779936D02*
X15844315Y-12789460D01*
X15844315Y-12789460D02*
X15863362Y-12798984D01*
X15863362Y-12798984D02*
X15901458Y-12798984D01*
X15901458Y-12798984D02*
X15920505Y-12789460D01*
X15920505Y-12789460D02*
X15930029Y-12779936D01*
X15930029Y-12779936D02*
X15939553Y-12760888D01*
X15939553Y-12760888D02*
X15939553Y-12722793D01*
X15939553Y-12722793D02*
X15930029Y-12703746D01*
X15930029Y-12703746D02*
X15920505Y-12694222D01*
X15920505Y-12694222D02*
X15901458Y-12684698D01*
X16063362Y-12598984D02*
X16082410Y-12598984D01*
X16082410Y-12598984D02*
X16101458Y-12608508D01*
X16101458Y-12608508D02*
X16110982Y-12618031D01*
X16110982Y-12618031D02*
X16120505Y-12637079D01*
X16120505Y-12637079D02*
X16130029Y-12675174D01*
X16130029Y-12675174D02*
X16130029Y-12722793D01*
X16130029Y-12722793D02*
X16120505Y-12760888D01*
X16120505Y-12760888D02*
X16110982Y-12779936D01*
X16110982Y-12779936D02*
X16101458Y-12789460D01*
X16101458Y-12789460D02*
X16082410Y-12798984D01*
X16082410Y-12798984D02*
X16063362Y-12798984D01*
X16063362Y-12798984D02*
X16044315Y-12789460D01*
X16044315Y-12789460D02*
X16034791Y-12779936D01*
X16034791Y-12779936D02*
X16025267Y-12760888D01*
X16025267Y-12760888D02*
X16015743Y-12722793D01*
X16015743Y-12722793D02*
X16015743Y-12675174D01*
X16015743Y-12675174D02*
X16025267Y-12637079D01*
X16025267Y-12637079D02*
X16034791Y-12618031D01*
X16034791Y-12618031D02*
X16044315Y-12608508D01*
X16044315Y-12608508D02*
X16063362Y-12598984D01*
X16253839Y-12598984D02*
X16272886Y-12598984D01*
X16272886Y-12598984D02*
X16291934Y-12608508D01*
X16291934Y-12608508D02*
X16301458Y-12618031D01*
X16301458Y-12618031D02*
X16310982Y-12637079D01*
X16310982Y-12637079D02*
X16320505Y-12675174D01*
X16320505Y-12675174D02*
X16320505Y-12722793D01*
X16320505Y-12722793D02*
X16310982Y-12760888D01*
X16310982Y-12760888D02*
X16301458Y-12779936D01*
X16301458Y-12779936D02*
X16291934Y-12789460D01*
X16291934Y-12789460D02*
X16272886Y-12798984D01*
X16272886Y-12798984D02*
X16253839Y-12798984D01*
X16253839Y-12798984D02*
X16234791Y-12789460D01*
X16234791Y-12789460D02*
X16225267Y-12779936D01*
X16225267Y-12779936D02*
X16215743Y-12760888D01*
X16215743Y-12760888D02*
X16206220Y-12722793D01*
X16206220Y-12722793D02*
X16206220Y-12675174D01*
X16206220Y-12675174D02*
X16215743Y-12637079D01*
X16215743Y-12637079D02*
X16225267Y-12618031D01*
X16225267Y-12618031D02*
X16234791Y-12608508D01*
X16234791Y-12608508D02*
X16253839Y-12598984D01*
X16406220Y-12798984D02*
X16406220Y-12665650D01*
X16406220Y-12684698D02*
X16415743Y-12675174D01*
X16415743Y-12675174D02*
X16434791Y-12665650D01*
X16434791Y-12665650D02*
X16463363Y-12665650D01*
X16463363Y-12665650D02*
X16482410Y-12675174D01*
X16482410Y-12675174D02*
X16491934Y-12694222D01*
X16491934Y-12694222D02*
X16491934Y-12798984D01*
X16491934Y-12694222D02*
X16501458Y-12675174D01*
X16501458Y-12675174D02*
X16520505Y-12665650D01*
X16520505Y-12665650D02*
X16549077Y-12665650D01*
X16549077Y-12665650D02*
X16568124Y-12675174D01*
X16568124Y-12675174D02*
X16577648Y-12694222D01*
X16577648Y-12694222D02*
X16577648Y-12798984D01*
X16672886Y-12798984D02*
X16672886Y-12665650D01*
X16672886Y-12684698D02*
X16682410Y-12675174D01*
X16682410Y-12675174D02*
X16701458Y-12665650D01*
X16701458Y-12665650D02*
X16730029Y-12665650D01*
X16730029Y-12665650D02*
X16749077Y-12675174D01*
X16749077Y-12675174D02*
X16758601Y-12694222D01*
X16758601Y-12694222D02*
X16758601Y-12798984D01*
X16758601Y-12694222D02*
X16768124Y-12675174D01*
X16768124Y-12675174D02*
X16787172Y-12665650D01*
X16787172Y-12665650D02*
X16815744Y-12665650D01*
X16815744Y-12665650D02*
X16834791Y-12675174D01*
X16834791Y-12675174D02*
X16844315Y-12694222D01*
X16844315Y-12694222D02*
X16844315Y-12798984D01*
X17234791Y-12589460D02*
X17063363Y-12846603D01*
X17491934Y-12598984D02*
X17510982Y-12598984D01*
X17510982Y-12598984D02*
X17530029Y-12608508D01*
X17530029Y-12608508D02*
X17539553Y-12618031D01*
X17539553Y-12618031D02*
X17549077Y-12637079D01*
X17549077Y-12637079D02*
X17558601Y-12675174D01*
X17558601Y-12675174D02*
X17558601Y-12722793D01*
X17558601Y-12722793D02*
X17549077Y-12760888D01*
X17549077Y-12760888D02*
X17539553Y-12779936D01*
X17539553Y-12779936D02*
X17530029Y-12789460D01*
X17530029Y-12789460D02*
X17510982Y-12798984D01*
X17510982Y-12798984D02*
X17491934Y-12798984D01*
X17491934Y-12798984D02*
X17472887Y-12789460D01*
X17472887Y-12789460D02*
X17463363Y-12779936D01*
X17463363Y-12779936D02*
X17453839Y-12760888D01*
X17453839Y-12760888D02*
X17444315Y-12722793D01*
X17444315Y-12722793D02*
X17444315Y-12675174D01*
X17444315Y-12675174D02*
X17453839Y-12637079D01*
X17453839Y-12637079D02*
X17463363Y-12618031D01*
X17463363Y-12618031D02*
X17472887Y-12608508D01*
X17472887Y-12608508D02*
X17491934Y-12598984D01*
X17644315Y-12779936D02*
X17653839Y-12789460D01*
X17653839Y-12789460D02*
X17644315Y-12798984D01*
X17644315Y-12798984D02*
X17634791Y-12789460D01*
X17634791Y-12789460D02*
X17644315Y-12779936D01*
X17644315Y-12779936D02*
X17644315Y-12798984D01*
X17777648Y-12598984D02*
X17796696Y-12598984D01*
X17796696Y-12598984D02*
X17815744Y-12608508D01*
X17815744Y-12608508D02*
X17825268Y-12618031D01*
X17825268Y-12618031D02*
X17834791Y-12637079D01*
X17834791Y-12637079D02*
X17844315Y-12675174D01*
X17844315Y-12675174D02*
X17844315Y-12722793D01*
X17844315Y-12722793D02*
X17834791Y-12760888D01*
X17834791Y-12760888D02*
X17825268Y-12779936D01*
X17825268Y-12779936D02*
X17815744Y-12789460D01*
X17815744Y-12789460D02*
X17796696Y-12798984D01*
X17796696Y-12798984D02*
X17777648Y-12798984D01*
X17777648Y-12798984D02*
X17758601Y-12789460D01*
X17758601Y-12789460D02*
X17749077Y-12779936D01*
X17749077Y-12779936D02*
X17739553Y-12760888D01*
X17739553Y-12760888D02*
X17730029Y-12722793D01*
X17730029Y-12722793D02*
X17730029Y-12675174D01*
X17730029Y-12675174D02*
X17739553Y-12637079D01*
X17739553Y-12637079D02*
X17749077Y-12618031D01*
X17749077Y-12618031D02*
X17758601Y-12608508D01*
X17758601Y-12608508D02*
X17777648Y-12598984D01*
X17910982Y-12598984D02*
X18034791Y-12598984D01*
X18034791Y-12598984D02*
X17968125Y-12675174D01*
X17968125Y-12675174D02*
X17996696Y-12675174D01*
X17996696Y-12675174D02*
X18015744Y-12684698D01*
X18015744Y-12684698D02*
X18025268Y-12694222D01*
X18025268Y-12694222D02*
X18034791Y-12713269D01*
X18034791Y-12713269D02*
X18034791Y-12760888D01*
X18034791Y-12760888D02*
X18025268Y-12779936D01*
X18025268Y-12779936D02*
X18015744Y-12789460D01*
X18015744Y-12789460D02*
X17996696Y-12798984D01*
X17996696Y-12798984D02*
X17939553Y-12798984D01*
X17939553Y-12798984D02*
X17920506Y-12789460D01*
X17920506Y-12789460D02*
X17910982Y-12779936D01*
X18225268Y-12798984D02*
X18110982Y-12798984D01*
X18168125Y-12798984D02*
X18168125Y-12598984D01*
X18168125Y-12598984D02*
X18149077Y-12627555D01*
X18149077Y-12627555D02*
X18130029Y-12646603D01*
X18130029Y-12646603D02*
X18110982Y-12656127D01*
X18406220Y-12598984D02*
X18310982Y-12598984D01*
X18310982Y-12598984D02*
X18301458Y-12694222D01*
X18301458Y-12694222D02*
X18310982Y-12684698D01*
X18310982Y-12684698D02*
X18330029Y-12675174D01*
X18330029Y-12675174D02*
X18377649Y-12675174D01*
X18377649Y-12675174D02*
X18396696Y-12684698D01*
X18396696Y-12684698D02*
X18406220Y-12694222D01*
X18406220Y-12694222D02*
X18415744Y-12713269D01*
X18415744Y-12713269D02*
X18415744Y-12760888D01*
X18415744Y-12760888D02*
X18406220Y-12779936D01*
X18406220Y-12779936D02*
X18396696Y-12789460D01*
X18396696Y-12789460D02*
X18377649Y-12798984D01*
X18377649Y-12798984D02*
X18330029Y-12798984D01*
X18330029Y-12798984D02*
X18310982Y-12789460D01*
X18310982Y-12789460D02*
X18301458Y-12779936D01*
X18491934Y-12598984D02*
X18491934Y-12637079D01*
X18568125Y-12598984D02*
X18568125Y-12637079D01*
X18863363Y-12875174D02*
X18853839Y-12865650D01*
X18853839Y-12865650D02*
X18834791Y-12837079D01*
X18834791Y-12837079D02*
X18825268Y-12818031D01*
X18825268Y-12818031D02*
X18815744Y-12789460D01*
X18815744Y-12789460D02*
X18806220Y-12741841D01*
X18806220Y-12741841D02*
X18806220Y-12703746D01*
X18806220Y-12703746D02*
X18815744Y-12656127D01*
X18815744Y-12656127D02*
X18825268Y-12627555D01*
X18825268Y-12627555D02*
X18834791Y-12608508D01*
X18834791Y-12608508D02*
X18853839Y-12579936D01*
X18853839Y-12579936D02*
X18863363Y-12570412D01*
X19044315Y-12798984D02*
X18930030Y-12798984D01*
X18987172Y-12798984D02*
X18987172Y-12598984D01*
X18987172Y-12598984D02*
X18968125Y-12627555D01*
X18968125Y-12627555D02*
X18949077Y-12646603D01*
X18949077Y-12646603D02*
X18930030Y-12656127D01*
X19215744Y-12598984D02*
X19177649Y-12598984D01*
X19177649Y-12598984D02*
X19158601Y-12608508D01*
X19158601Y-12608508D02*
X19149077Y-12618031D01*
X19149077Y-12618031D02*
X19130030Y-12646603D01*
X19130030Y-12646603D02*
X19120506Y-12684698D01*
X19120506Y-12684698D02*
X19120506Y-12760888D01*
X19120506Y-12760888D02*
X19130030Y-12779936D01*
X19130030Y-12779936D02*
X19139553Y-12789460D01*
X19139553Y-12789460D02*
X19158601Y-12798984D01*
X19158601Y-12798984D02*
X19196696Y-12798984D01*
X19196696Y-12798984D02*
X19215744Y-12789460D01*
X19215744Y-12789460D02*
X19225268Y-12779936D01*
X19225268Y-12779936D02*
X19234791Y-12760888D01*
X19234791Y-12760888D02*
X19234791Y-12713269D01*
X19234791Y-12713269D02*
X19225268Y-12694222D01*
X19225268Y-12694222D02*
X19215744Y-12684698D01*
X19215744Y-12684698D02*
X19196696Y-12675174D01*
X19196696Y-12675174D02*
X19158601Y-12675174D01*
X19158601Y-12675174D02*
X19139553Y-12684698D01*
X19139553Y-12684698D02*
X19130030Y-12694222D01*
X19130030Y-12694222D02*
X19120506Y-12713269D01*
X19472887Y-12798984D02*
X19472887Y-12598984D01*
X19558601Y-12798984D02*
X19558601Y-12694222D01*
X19558601Y-12694222D02*
X19549077Y-12675174D01*
X19549077Y-12675174D02*
X19530030Y-12665650D01*
X19530030Y-12665650D02*
X19501458Y-12665650D01*
X19501458Y-12665650D02*
X19482411Y-12675174D01*
X19482411Y-12675174D02*
X19472887Y-12684698D01*
X19682411Y-12798984D02*
X19663363Y-12789460D01*
X19663363Y-12789460D02*
X19653839Y-12779936D01*
X19653839Y-12779936D02*
X19644315Y-12760888D01*
X19644315Y-12760888D02*
X19644315Y-12703746D01*
X19644315Y-12703746D02*
X19653839Y-12684698D01*
X19653839Y-12684698D02*
X19663363Y-12675174D01*
X19663363Y-12675174D02*
X19682411Y-12665650D01*
X19682411Y-12665650D02*
X19710982Y-12665650D01*
X19710982Y-12665650D02*
X19730030Y-12675174D01*
X19730030Y-12675174D02*
X19739553Y-12684698D01*
X19739553Y-12684698D02*
X19749077Y-12703746D01*
X19749077Y-12703746D02*
X19749077Y-12760888D01*
X19749077Y-12760888D02*
X19739553Y-12779936D01*
X19739553Y-12779936D02*
X19730030Y-12789460D01*
X19730030Y-12789460D02*
X19710982Y-12798984D01*
X19710982Y-12798984D02*
X19682411Y-12798984D01*
X19863363Y-12798984D02*
X19844315Y-12789460D01*
X19844315Y-12789460D02*
X19834792Y-12770412D01*
X19834792Y-12770412D02*
X19834792Y-12598984D01*
X20015744Y-12789460D02*
X19996696Y-12798984D01*
X19996696Y-12798984D02*
X19958601Y-12798984D01*
X19958601Y-12798984D02*
X19939553Y-12789460D01*
X19939553Y-12789460D02*
X19930030Y-12770412D01*
X19930030Y-12770412D02*
X19930030Y-12694222D01*
X19930030Y-12694222D02*
X19939553Y-12675174D01*
X19939553Y-12675174D02*
X19958601Y-12665650D01*
X19958601Y-12665650D02*
X19996696Y-12665650D01*
X19996696Y-12665650D02*
X20015744Y-12675174D01*
X20015744Y-12675174D02*
X20025268Y-12694222D01*
X20025268Y-12694222D02*
X20025268Y-12713269D01*
X20025268Y-12713269D02*
X19930030Y-12732317D01*
X20101458Y-12789460D02*
X20120506Y-12798984D01*
X20120506Y-12798984D02*
X20158601Y-12798984D01*
X20158601Y-12798984D02*
X20177649Y-12789460D01*
X20177649Y-12789460D02*
X20187173Y-12770412D01*
X20187173Y-12770412D02*
X20187173Y-12760888D01*
X20187173Y-12760888D02*
X20177649Y-12741841D01*
X20177649Y-12741841D02*
X20158601Y-12732317D01*
X20158601Y-12732317D02*
X20130030Y-12732317D01*
X20130030Y-12732317D02*
X20110982Y-12722793D01*
X20110982Y-12722793D02*
X20101458Y-12703746D01*
X20101458Y-12703746D02*
X20101458Y-12694222D01*
X20101458Y-12694222D02*
X20110982Y-12675174D01*
X20110982Y-12675174D02*
X20130030Y-12665650D01*
X20130030Y-12665650D02*
X20158601Y-12665650D01*
X20158601Y-12665650D02*
X20177649Y-12675174D01*
X20253839Y-12875174D02*
X20263363Y-12865650D01*
X20263363Y-12865650D02*
X20282411Y-12837079D01*
X20282411Y-12837079D02*
X20291934Y-12818031D01*
X20291934Y-12818031D02*
X20301458Y-12789460D01*
X20301458Y-12789460D02*
X20310982Y-12741841D01*
X20310982Y-12741841D02*
X20310982Y-12703746D01*
X20310982Y-12703746D02*
X20301458Y-12656127D01*
X20301458Y-12656127D02*
X20291934Y-12627555D01*
X20291934Y-12627555D02*
X20282411Y-12608508D01*
X20282411Y-12608508D02*
X20263363Y-12579936D01*
X20263363Y-12579936D02*
X20253839Y-12570412D01*
D12*
X15288300Y-12971500D02*
G75*
G02*
X15188300Y-12971500I-50000J0D01*
G01*
X15188300Y-12971500D02*
G75*
G02*
X15288300Y-12971500I50000J0D01*
G01*
D11*
X15653839Y-13062984D02*
X15539553Y-13062984D01*
X15596696Y-13062984D02*
X15596696Y-12862984D01*
X15596696Y-12862984D02*
X15577648Y-12891555D01*
X15577648Y-12891555D02*
X15558601Y-12910603D01*
X15558601Y-12910603D02*
X15539553Y-12920127D01*
X15739553Y-13043936D02*
X15749077Y-13053460D01*
X15749077Y-13053460D02*
X15739553Y-13062984D01*
X15739553Y-13062984D02*
X15730029Y-13053460D01*
X15730029Y-13053460D02*
X15739553Y-13043936D01*
X15739553Y-13043936D02*
X15739553Y-13062984D01*
X15872886Y-12862984D02*
X15891934Y-12862984D01*
X15891934Y-12862984D02*
X15910982Y-12872508D01*
X15910982Y-12872508D02*
X15920505Y-12882031D01*
X15920505Y-12882031D02*
X15930029Y-12901079D01*
X15930029Y-12901079D02*
X15939553Y-12939174D01*
X15939553Y-12939174D02*
X15939553Y-12986793D01*
X15939553Y-12986793D02*
X15930029Y-13024888D01*
X15930029Y-13024888D02*
X15920505Y-13043936D01*
X15920505Y-13043936D02*
X15910982Y-13053460D01*
X15910982Y-13053460D02*
X15891934Y-13062984D01*
X15891934Y-13062984D02*
X15872886Y-13062984D01*
X15872886Y-13062984D02*
X15853839Y-13053460D01*
X15853839Y-13053460D02*
X15844315Y-13043936D01*
X15844315Y-13043936D02*
X15834791Y-13024888D01*
X15834791Y-13024888D02*
X15825267Y-12986793D01*
X15825267Y-12986793D02*
X15825267Y-12939174D01*
X15825267Y-12939174D02*
X15834791Y-12901079D01*
X15834791Y-12901079D02*
X15844315Y-12882031D01*
X15844315Y-12882031D02*
X15853839Y-12872508D01*
X15853839Y-12872508D02*
X15872886Y-12862984D01*
X16063362Y-12862984D02*
X16082410Y-12862984D01*
X16082410Y-12862984D02*
X16101458Y-12872508D01*
X16101458Y-12872508D02*
X16110982Y-12882031D01*
X16110982Y-12882031D02*
X16120505Y-12901079D01*
X16120505Y-12901079D02*
X16130029Y-12939174D01*
X16130029Y-12939174D02*
X16130029Y-12986793D01*
X16130029Y-12986793D02*
X16120505Y-13024888D01*
X16120505Y-13024888D02*
X16110982Y-13043936D01*
X16110982Y-13043936D02*
X16101458Y-13053460D01*
X16101458Y-13053460D02*
X16082410Y-13062984D01*
X16082410Y-13062984D02*
X16063362Y-13062984D01*
X16063362Y-13062984D02*
X16044315Y-13053460D01*
X16044315Y-13053460D02*
X16034791Y-13043936D01*
X16034791Y-13043936D02*
X16025267Y-13024888D01*
X16025267Y-13024888D02*
X16015743Y-12986793D01*
X16015743Y-12986793D02*
X16015743Y-12939174D01*
X16015743Y-12939174D02*
X16025267Y-12901079D01*
X16025267Y-12901079D02*
X16034791Y-12882031D01*
X16034791Y-12882031D02*
X16044315Y-12872508D01*
X16044315Y-12872508D02*
X16063362Y-12862984D01*
X16253839Y-12862984D02*
X16272886Y-12862984D01*
X16272886Y-12862984D02*
X16291934Y-12872508D01*
X16291934Y-12872508D02*
X16301458Y-12882031D01*
X16301458Y-12882031D02*
X16310982Y-12901079D01*
X16310982Y-12901079D02*
X16320505Y-12939174D01*
X16320505Y-12939174D02*
X16320505Y-12986793D01*
X16320505Y-12986793D02*
X16310982Y-13024888D01*
X16310982Y-13024888D02*
X16301458Y-13043936D01*
X16301458Y-13043936D02*
X16291934Y-13053460D01*
X16291934Y-13053460D02*
X16272886Y-13062984D01*
X16272886Y-13062984D02*
X16253839Y-13062984D01*
X16253839Y-13062984D02*
X16234791Y-13053460D01*
X16234791Y-13053460D02*
X16225267Y-13043936D01*
X16225267Y-13043936D02*
X16215743Y-13024888D01*
X16215743Y-13024888D02*
X16206220Y-12986793D01*
X16206220Y-12986793D02*
X16206220Y-12939174D01*
X16206220Y-12939174D02*
X16215743Y-12901079D01*
X16215743Y-12901079D02*
X16225267Y-12882031D01*
X16225267Y-12882031D02*
X16234791Y-12872508D01*
X16234791Y-12872508D02*
X16253839Y-12862984D01*
X16406220Y-13062984D02*
X16406220Y-12929650D01*
X16406220Y-12948698D02*
X16415743Y-12939174D01*
X16415743Y-12939174D02*
X16434791Y-12929650D01*
X16434791Y-12929650D02*
X16463363Y-12929650D01*
X16463363Y-12929650D02*
X16482410Y-12939174D01*
X16482410Y-12939174D02*
X16491934Y-12958222D01*
X16491934Y-12958222D02*
X16491934Y-13062984D01*
X16491934Y-12958222D02*
X16501458Y-12939174D01*
X16501458Y-12939174D02*
X16520505Y-12929650D01*
X16520505Y-12929650D02*
X16549077Y-12929650D01*
X16549077Y-12929650D02*
X16568124Y-12939174D01*
X16568124Y-12939174D02*
X16577648Y-12958222D01*
X16577648Y-12958222D02*
X16577648Y-13062984D01*
X16672886Y-13062984D02*
X16672886Y-12929650D01*
X16672886Y-12948698D02*
X16682410Y-12939174D01*
X16682410Y-12939174D02*
X16701458Y-12929650D01*
X16701458Y-12929650D02*
X16730029Y-12929650D01*
X16730029Y-12929650D02*
X16749077Y-12939174D01*
X16749077Y-12939174D02*
X16758601Y-12958222D01*
X16758601Y-12958222D02*
X16758601Y-13062984D01*
X16758601Y-12958222D02*
X16768124Y-12939174D01*
X16768124Y-12939174D02*
X16787172Y-12929650D01*
X16787172Y-12929650D02*
X16815744Y-12929650D01*
X16815744Y-12929650D02*
X16834791Y-12939174D01*
X16834791Y-12939174D02*
X16844315Y-12958222D01*
X16844315Y-12958222D02*
X16844315Y-13062984D01*
X17234791Y-12853460D02*
X17063363Y-13110603D01*
X17491934Y-12862984D02*
X17510982Y-12862984D01*
X17510982Y-12862984D02*
X17530029Y-12872508D01*
X17530029Y-12872508D02*
X17539553Y-12882031D01*
X17539553Y-12882031D02*
X17549077Y-12901079D01*
X17549077Y-12901079D02*
X17558601Y-12939174D01*
X17558601Y-12939174D02*
X17558601Y-12986793D01*
X17558601Y-12986793D02*
X17549077Y-13024888D01*
X17549077Y-13024888D02*
X17539553Y-13043936D01*
X17539553Y-13043936D02*
X17530029Y-13053460D01*
X17530029Y-13053460D02*
X17510982Y-13062984D01*
X17510982Y-13062984D02*
X17491934Y-13062984D01*
X17491934Y-13062984D02*
X17472887Y-13053460D01*
X17472887Y-13053460D02*
X17463363Y-13043936D01*
X17463363Y-13043936D02*
X17453839Y-13024888D01*
X17453839Y-13024888D02*
X17444315Y-12986793D01*
X17444315Y-12986793D02*
X17444315Y-12939174D01*
X17444315Y-12939174D02*
X17453839Y-12901079D01*
X17453839Y-12901079D02*
X17463363Y-12882031D01*
X17463363Y-12882031D02*
X17472887Y-12872508D01*
X17472887Y-12872508D02*
X17491934Y-12862984D01*
X17644315Y-13043936D02*
X17653839Y-13053460D01*
X17653839Y-13053460D02*
X17644315Y-13062984D01*
X17644315Y-13062984D02*
X17634791Y-13053460D01*
X17634791Y-13053460D02*
X17644315Y-13043936D01*
X17644315Y-13043936D02*
X17644315Y-13062984D01*
X17777648Y-12862984D02*
X17796696Y-12862984D01*
X17796696Y-12862984D02*
X17815744Y-12872508D01*
X17815744Y-12872508D02*
X17825268Y-12882031D01*
X17825268Y-12882031D02*
X17834791Y-12901079D01*
X17834791Y-12901079D02*
X17844315Y-12939174D01*
X17844315Y-12939174D02*
X17844315Y-12986793D01*
X17844315Y-12986793D02*
X17834791Y-13024888D01*
X17834791Y-13024888D02*
X17825268Y-13043936D01*
X17825268Y-13043936D02*
X17815744Y-13053460D01*
X17815744Y-13053460D02*
X17796696Y-13062984D01*
X17796696Y-13062984D02*
X17777648Y-13062984D01*
X17777648Y-13062984D02*
X17758601Y-13053460D01*
X17758601Y-13053460D02*
X17749077Y-13043936D01*
X17749077Y-13043936D02*
X17739553Y-13024888D01*
X17739553Y-13024888D02*
X17730029Y-12986793D01*
X17730029Y-12986793D02*
X17730029Y-12939174D01*
X17730029Y-12939174D02*
X17739553Y-12901079D01*
X17739553Y-12901079D02*
X17749077Y-12882031D01*
X17749077Y-12882031D02*
X17758601Y-12872508D01*
X17758601Y-12872508D02*
X17777648Y-12862984D01*
X17910982Y-12862984D02*
X18034791Y-12862984D01*
X18034791Y-12862984D02*
X17968125Y-12939174D01*
X17968125Y-12939174D02*
X17996696Y-12939174D01*
X17996696Y-12939174D02*
X18015744Y-12948698D01*
X18015744Y-12948698D02*
X18025268Y-12958222D01*
X18025268Y-12958222D02*
X18034791Y-12977269D01*
X18034791Y-12977269D02*
X18034791Y-13024888D01*
X18034791Y-13024888D02*
X18025268Y-13043936D01*
X18025268Y-13043936D02*
X18015744Y-13053460D01*
X18015744Y-13053460D02*
X17996696Y-13062984D01*
X17996696Y-13062984D02*
X17939553Y-13062984D01*
X17939553Y-13062984D02*
X17920506Y-13053460D01*
X17920506Y-13053460D02*
X17910982Y-13043936D01*
X18130029Y-13062984D02*
X18168125Y-13062984D01*
X18168125Y-13062984D02*
X18187172Y-13053460D01*
X18187172Y-13053460D02*
X18196696Y-13043936D01*
X18196696Y-13043936D02*
X18215744Y-13015365D01*
X18215744Y-13015365D02*
X18225268Y-12977269D01*
X18225268Y-12977269D02*
X18225268Y-12901079D01*
X18225268Y-12901079D02*
X18215744Y-12882031D01*
X18215744Y-12882031D02*
X18206220Y-12872508D01*
X18206220Y-12872508D02*
X18187172Y-12862984D01*
X18187172Y-12862984D02*
X18149077Y-12862984D01*
X18149077Y-12862984D02*
X18130029Y-12872508D01*
X18130029Y-12872508D02*
X18120506Y-12882031D01*
X18120506Y-12882031D02*
X18110982Y-12901079D01*
X18110982Y-12901079D02*
X18110982Y-12948698D01*
X18110982Y-12948698D02*
X18120506Y-12967746D01*
X18120506Y-12967746D02*
X18130029Y-12977269D01*
X18130029Y-12977269D02*
X18149077Y-12986793D01*
X18149077Y-12986793D02*
X18187172Y-12986793D01*
X18187172Y-12986793D02*
X18206220Y-12977269D01*
X18206220Y-12977269D02*
X18215744Y-12967746D01*
X18215744Y-12967746D02*
X18225268Y-12948698D01*
X18396696Y-12929650D02*
X18396696Y-13062984D01*
X18349077Y-12853460D02*
X18301458Y-12996317D01*
X18301458Y-12996317D02*
X18425268Y-12996317D01*
X18491934Y-12862984D02*
X18491934Y-12901079D01*
X18568125Y-12862984D02*
X18568125Y-12901079D01*
X18863363Y-13139174D02*
X18853839Y-13129650D01*
X18853839Y-13129650D02*
X18834791Y-13101079D01*
X18834791Y-13101079D02*
X18825268Y-13082031D01*
X18825268Y-13082031D02*
X18815744Y-13053460D01*
X18815744Y-13053460D02*
X18806220Y-13005841D01*
X18806220Y-13005841D02*
X18806220Y-12967746D01*
X18806220Y-12967746D02*
X18815744Y-12920127D01*
X18815744Y-12920127D02*
X18825268Y-12891555D01*
X18825268Y-12891555D02*
X18834791Y-12872508D01*
X18834791Y-12872508D02*
X18853839Y-12843936D01*
X18853839Y-12843936D02*
X18863363Y-12834412D01*
X19025268Y-12929650D02*
X19025268Y-13062984D01*
X18977649Y-12853460D02*
X18930030Y-12996317D01*
X18930030Y-12996317D02*
X19053839Y-12996317D01*
X19158601Y-12948698D02*
X19139553Y-12939174D01*
X19139553Y-12939174D02*
X19130030Y-12929650D01*
X19130030Y-12929650D02*
X19120506Y-12910603D01*
X19120506Y-12910603D02*
X19120506Y-12901079D01*
X19120506Y-12901079D02*
X19130030Y-12882031D01*
X19130030Y-12882031D02*
X19139553Y-12872508D01*
X19139553Y-12872508D02*
X19158601Y-12862984D01*
X19158601Y-12862984D02*
X19196696Y-12862984D01*
X19196696Y-12862984D02*
X19215744Y-12872508D01*
X19215744Y-12872508D02*
X19225268Y-12882031D01*
X19225268Y-12882031D02*
X19234791Y-12901079D01*
X19234791Y-12901079D02*
X19234791Y-12910603D01*
X19234791Y-12910603D02*
X19225268Y-12929650D01*
X19225268Y-12929650D02*
X19215744Y-12939174D01*
X19215744Y-12939174D02*
X19196696Y-12948698D01*
X19196696Y-12948698D02*
X19158601Y-12948698D01*
X19158601Y-12948698D02*
X19139553Y-12958222D01*
X19139553Y-12958222D02*
X19130030Y-12967746D01*
X19130030Y-12967746D02*
X19120506Y-12986793D01*
X19120506Y-12986793D02*
X19120506Y-13024888D01*
X19120506Y-13024888D02*
X19130030Y-13043936D01*
X19130030Y-13043936D02*
X19139553Y-13053460D01*
X19139553Y-13053460D02*
X19158601Y-13062984D01*
X19158601Y-13062984D02*
X19196696Y-13062984D01*
X19196696Y-13062984D02*
X19215744Y-13053460D01*
X19215744Y-13053460D02*
X19225268Y-13043936D01*
X19225268Y-13043936D02*
X19234791Y-13024888D01*
X19234791Y-13024888D02*
X19234791Y-12986793D01*
X19234791Y-12986793D02*
X19225268Y-12967746D01*
X19225268Y-12967746D02*
X19215744Y-12958222D01*
X19215744Y-12958222D02*
X19196696Y-12948698D01*
X19472887Y-13062984D02*
X19472887Y-12862984D01*
X19558601Y-13062984D02*
X19558601Y-12958222D01*
X19558601Y-12958222D02*
X19549077Y-12939174D01*
X19549077Y-12939174D02*
X19530030Y-12929650D01*
X19530030Y-12929650D02*
X19501458Y-12929650D01*
X19501458Y-12929650D02*
X19482411Y-12939174D01*
X19482411Y-12939174D02*
X19472887Y-12948698D01*
X19682411Y-13062984D02*
X19663363Y-13053460D01*
X19663363Y-13053460D02*
X19653839Y-13043936D01*
X19653839Y-13043936D02*
X19644315Y-13024888D01*
X19644315Y-13024888D02*
X19644315Y-12967746D01*
X19644315Y-12967746D02*
X19653839Y-12948698D01*
X19653839Y-12948698D02*
X19663363Y-12939174D01*
X19663363Y-12939174D02*
X19682411Y-12929650D01*
X19682411Y-12929650D02*
X19710982Y-12929650D01*
X19710982Y-12929650D02*
X19730030Y-12939174D01*
X19730030Y-12939174D02*
X19739553Y-12948698D01*
X19739553Y-12948698D02*
X19749077Y-12967746D01*
X19749077Y-12967746D02*
X19749077Y-13024888D01*
X19749077Y-13024888D02*
X19739553Y-13043936D01*
X19739553Y-13043936D02*
X19730030Y-13053460D01*
X19730030Y-13053460D02*
X19710982Y-13062984D01*
X19710982Y-13062984D02*
X19682411Y-13062984D01*
X19863363Y-13062984D02*
X19844315Y-13053460D01*
X19844315Y-13053460D02*
X19834792Y-13034412D01*
X19834792Y-13034412D02*
X19834792Y-12862984D01*
X20015744Y-13053460D02*
X19996696Y-13062984D01*
X19996696Y-13062984D02*
X19958601Y-13062984D01*
X19958601Y-13062984D02*
X19939553Y-13053460D01*
X19939553Y-13053460D02*
X19930030Y-13034412D01*
X19930030Y-13034412D02*
X19930030Y-12958222D01*
X19930030Y-12958222D02*
X19939553Y-12939174D01*
X19939553Y-12939174D02*
X19958601Y-12929650D01*
X19958601Y-12929650D02*
X19996696Y-12929650D01*
X19996696Y-12929650D02*
X20015744Y-12939174D01*
X20015744Y-12939174D02*
X20025268Y-12958222D01*
X20025268Y-12958222D02*
X20025268Y-12977269D01*
X20025268Y-12977269D02*
X19930030Y-12996317D01*
X20101458Y-13053460D02*
X20120506Y-13062984D01*
X20120506Y-13062984D02*
X20158601Y-13062984D01*
X20158601Y-13062984D02*
X20177649Y-13053460D01*
X20177649Y-13053460D02*
X20187173Y-13034412D01*
X20187173Y-13034412D02*
X20187173Y-13024888D01*
X20187173Y-13024888D02*
X20177649Y-13005841D01*
X20177649Y-13005841D02*
X20158601Y-12996317D01*
X20158601Y-12996317D02*
X20130030Y-12996317D01*
X20130030Y-12996317D02*
X20110982Y-12986793D01*
X20110982Y-12986793D02*
X20101458Y-12967746D01*
X20101458Y-12967746D02*
X20101458Y-12958222D01*
X20101458Y-12958222D02*
X20110982Y-12939174D01*
X20110982Y-12939174D02*
X20130030Y-12929650D01*
X20130030Y-12929650D02*
X20158601Y-12929650D01*
X20158601Y-12929650D02*
X20177649Y-12939174D01*
X20253839Y-13139174D02*
X20263363Y-13129650D01*
X20263363Y-13129650D02*
X20282411Y-13101079D01*
X20282411Y-13101079D02*
X20291934Y-13082031D01*
X20291934Y-13082031D02*
X20301458Y-13053460D01*
X20301458Y-13053460D02*
X20310982Y-13005841D01*
X20310982Y-13005841D02*
X20310982Y-12967746D01*
X20310982Y-12967746D02*
X20301458Y-12920127D01*
X20301458Y-12920127D02*
X20291934Y-12891555D01*
X20291934Y-12891555D02*
X20282411Y-12872508D01*
X20282411Y-12872508D02*
X20263363Y-12843936D01*
X20263363Y-12843936D02*
X20253839Y-12834412D01*
D13*
X15218300Y-13165500D02*
X15218300Y-13305500D01*
X15148300Y-13235500D02*
X15288300Y-13235500D01*
D11*
X15653839Y-13326984D02*
X15539553Y-13326984D01*
X15596696Y-13326984D02*
X15596696Y-13126984D01*
X15596696Y-13126984D02*
X15577648Y-13155555D01*
X15577648Y-13155555D02*
X15558601Y-13174603D01*
X15558601Y-13174603D02*
X15539553Y-13184127D01*
X15739553Y-13307936D02*
X15749077Y-13317460D01*
X15749077Y-13317460D02*
X15739553Y-13326984D01*
X15739553Y-13326984D02*
X15730029Y-13317460D01*
X15730029Y-13317460D02*
X15739553Y-13307936D01*
X15739553Y-13307936D02*
X15739553Y-13326984D01*
X15920505Y-13193650D02*
X15920505Y-13326984D01*
X15872886Y-13117460D02*
X15825267Y-13260317D01*
X15825267Y-13260317D02*
X15949077Y-13260317D01*
X16063362Y-13126984D02*
X16082410Y-13126984D01*
X16082410Y-13126984D02*
X16101458Y-13136508D01*
X16101458Y-13136508D02*
X16110982Y-13146031D01*
X16110982Y-13146031D02*
X16120505Y-13165079D01*
X16120505Y-13165079D02*
X16130029Y-13203174D01*
X16130029Y-13203174D02*
X16130029Y-13250793D01*
X16130029Y-13250793D02*
X16120505Y-13288888D01*
X16120505Y-13288888D02*
X16110982Y-13307936D01*
X16110982Y-13307936D02*
X16101458Y-13317460D01*
X16101458Y-13317460D02*
X16082410Y-13326984D01*
X16082410Y-13326984D02*
X16063362Y-13326984D01*
X16063362Y-13326984D02*
X16044315Y-13317460D01*
X16044315Y-13317460D02*
X16034791Y-13307936D01*
X16034791Y-13307936D02*
X16025267Y-13288888D01*
X16025267Y-13288888D02*
X16015743Y-13250793D01*
X16015743Y-13250793D02*
X16015743Y-13203174D01*
X16015743Y-13203174D02*
X16025267Y-13165079D01*
X16025267Y-13165079D02*
X16034791Y-13146031D01*
X16034791Y-13146031D02*
X16044315Y-13136508D01*
X16044315Y-13136508D02*
X16063362Y-13126984D01*
X16253839Y-13126984D02*
X16272886Y-13126984D01*
X16272886Y-13126984D02*
X16291934Y-13136508D01*
X16291934Y-13136508D02*
X16301458Y-13146031D01*
X16301458Y-13146031D02*
X16310982Y-13165079D01*
X16310982Y-13165079D02*
X16320505Y-13203174D01*
X16320505Y-13203174D02*
X16320505Y-13250793D01*
X16320505Y-13250793D02*
X16310982Y-13288888D01*
X16310982Y-13288888D02*
X16301458Y-13307936D01*
X16301458Y-13307936D02*
X16291934Y-13317460D01*
X16291934Y-13317460D02*
X16272886Y-13326984D01*
X16272886Y-13326984D02*
X16253839Y-13326984D01*
X16253839Y-13326984D02*
X16234791Y-13317460D01*
X16234791Y-13317460D02*
X16225267Y-13307936D01*
X16225267Y-13307936D02*
X16215743Y-13288888D01*
X16215743Y-13288888D02*
X16206220Y-13250793D01*
X16206220Y-13250793D02*
X16206220Y-13203174D01*
X16206220Y-13203174D02*
X16215743Y-13165079D01*
X16215743Y-13165079D02*
X16225267Y-13146031D01*
X16225267Y-13146031D02*
X16234791Y-13136508D01*
X16234791Y-13136508D02*
X16253839Y-13126984D01*
X16406220Y-13326984D02*
X16406220Y-13193650D01*
X16406220Y-13212698D02*
X16415743Y-13203174D01*
X16415743Y-13203174D02*
X16434791Y-13193650D01*
X16434791Y-13193650D02*
X16463363Y-13193650D01*
X16463363Y-13193650D02*
X16482410Y-13203174D01*
X16482410Y-13203174D02*
X16491934Y-13222222D01*
X16491934Y-13222222D02*
X16491934Y-13326984D01*
X16491934Y-13222222D02*
X16501458Y-13203174D01*
X16501458Y-13203174D02*
X16520505Y-13193650D01*
X16520505Y-13193650D02*
X16549077Y-13193650D01*
X16549077Y-13193650D02*
X16568124Y-13203174D01*
X16568124Y-13203174D02*
X16577648Y-13222222D01*
X16577648Y-13222222D02*
X16577648Y-13326984D01*
X16672886Y-13326984D02*
X16672886Y-13193650D01*
X16672886Y-13212698D02*
X16682410Y-13203174D01*
X16682410Y-13203174D02*
X16701458Y-13193650D01*
X16701458Y-13193650D02*
X16730029Y-13193650D01*
X16730029Y-13193650D02*
X16749077Y-13203174D01*
X16749077Y-13203174D02*
X16758601Y-13222222D01*
X16758601Y-13222222D02*
X16758601Y-13326984D01*
X16758601Y-13222222D02*
X16768124Y-13203174D01*
X16768124Y-13203174D02*
X16787172Y-13193650D01*
X16787172Y-13193650D02*
X16815744Y-13193650D01*
X16815744Y-13193650D02*
X16834791Y-13203174D01*
X16834791Y-13203174D02*
X16844315Y-13222222D01*
X16844315Y-13222222D02*
X16844315Y-13326984D01*
X17234791Y-13117460D02*
X17063363Y-13374603D01*
X17491934Y-13126984D02*
X17510982Y-13126984D01*
X17510982Y-13126984D02*
X17530029Y-13136508D01*
X17530029Y-13136508D02*
X17539553Y-13146031D01*
X17539553Y-13146031D02*
X17549077Y-13165079D01*
X17549077Y-13165079D02*
X17558601Y-13203174D01*
X17558601Y-13203174D02*
X17558601Y-13250793D01*
X17558601Y-13250793D02*
X17549077Y-13288888D01*
X17549077Y-13288888D02*
X17539553Y-13307936D01*
X17539553Y-13307936D02*
X17530029Y-13317460D01*
X17530029Y-13317460D02*
X17510982Y-13326984D01*
X17510982Y-13326984D02*
X17491934Y-13326984D01*
X17491934Y-13326984D02*
X17472887Y-13317460D01*
X17472887Y-13317460D02*
X17463363Y-13307936D01*
X17463363Y-13307936D02*
X17453839Y-13288888D01*
X17453839Y-13288888D02*
X17444315Y-13250793D01*
X17444315Y-13250793D02*
X17444315Y-13203174D01*
X17444315Y-13203174D02*
X17453839Y-13165079D01*
X17453839Y-13165079D02*
X17463363Y-13146031D01*
X17463363Y-13146031D02*
X17472887Y-13136508D01*
X17472887Y-13136508D02*
X17491934Y-13126984D01*
X17644315Y-13307936D02*
X17653839Y-13317460D01*
X17653839Y-13317460D02*
X17644315Y-13326984D01*
X17644315Y-13326984D02*
X17634791Y-13317460D01*
X17634791Y-13317460D02*
X17644315Y-13307936D01*
X17644315Y-13307936D02*
X17644315Y-13326984D01*
X17777648Y-13126984D02*
X17796696Y-13126984D01*
X17796696Y-13126984D02*
X17815744Y-13136508D01*
X17815744Y-13136508D02*
X17825268Y-13146031D01*
X17825268Y-13146031D02*
X17834791Y-13165079D01*
X17834791Y-13165079D02*
X17844315Y-13203174D01*
X17844315Y-13203174D02*
X17844315Y-13250793D01*
X17844315Y-13250793D02*
X17834791Y-13288888D01*
X17834791Y-13288888D02*
X17825268Y-13307936D01*
X17825268Y-13307936D02*
X17815744Y-13317460D01*
X17815744Y-13317460D02*
X17796696Y-13326984D01*
X17796696Y-13326984D02*
X17777648Y-13326984D01*
X17777648Y-13326984D02*
X17758601Y-13317460D01*
X17758601Y-13317460D02*
X17749077Y-13307936D01*
X17749077Y-13307936D02*
X17739553Y-13288888D01*
X17739553Y-13288888D02*
X17730029Y-13250793D01*
X17730029Y-13250793D02*
X17730029Y-13203174D01*
X17730029Y-13203174D02*
X17739553Y-13165079D01*
X17739553Y-13165079D02*
X17749077Y-13146031D01*
X17749077Y-13146031D02*
X17758601Y-13136508D01*
X17758601Y-13136508D02*
X17777648Y-13126984D01*
X18025268Y-13126984D02*
X17930029Y-13126984D01*
X17930029Y-13126984D02*
X17920506Y-13222222D01*
X17920506Y-13222222D02*
X17930029Y-13212698D01*
X17930029Y-13212698D02*
X17949077Y-13203174D01*
X17949077Y-13203174D02*
X17996696Y-13203174D01*
X17996696Y-13203174D02*
X18015744Y-13212698D01*
X18015744Y-13212698D02*
X18025268Y-13222222D01*
X18025268Y-13222222D02*
X18034791Y-13241269D01*
X18034791Y-13241269D02*
X18034791Y-13288888D01*
X18034791Y-13288888D02*
X18025268Y-13307936D01*
X18025268Y-13307936D02*
X18015744Y-13317460D01*
X18015744Y-13317460D02*
X17996696Y-13326984D01*
X17996696Y-13326984D02*
X17949077Y-13326984D01*
X17949077Y-13326984D02*
X17930029Y-13317460D01*
X17930029Y-13317460D02*
X17920506Y-13307936D01*
X18215744Y-13126984D02*
X18120506Y-13126984D01*
X18120506Y-13126984D02*
X18110982Y-13222222D01*
X18110982Y-13222222D02*
X18120506Y-13212698D01*
X18120506Y-13212698D02*
X18139553Y-13203174D01*
X18139553Y-13203174D02*
X18187172Y-13203174D01*
X18187172Y-13203174D02*
X18206220Y-13212698D01*
X18206220Y-13212698D02*
X18215744Y-13222222D01*
X18215744Y-13222222D02*
X18225268Y-13241269D01*
X18225268Y-13241269D02*
X18225268Y-13288888D01*
X18225268Y-13288888D02*
X18215744Y-13307936D01*
X18215744Y-13307936D02*
X18206220Y-13317460D01*
X18206220Y-13317460D02*
X18187172Y-13326984D01*
X18187172Y-13326984D02*
X18139553Y-13326984D01*
X18139553Y-13326984D02*
X18120506Y-13317460D01*
X18120506Y-13317460D02*
X18110982Y-13307936D01*
X18415744Y-13326984D02*
X18301458Y-13326984D01*
X18358601Y-13326984D02*
X18358601Y-13126984D01*
X18358601Y-13126984D02*
X18339553Y-13155555D01*
X18339553Y-13155555D02*
X18320506Y-13174603D01*
X18320506Y-13174603D02*
X18301458Y-13184127D01*
X18491934Y-13126984D02*
X18491934Y-13165079D01*
X18568125Y-13126984D02*
X18568125Y-13165079D01*
X18863363Y-13403174D02*
X18853839Y-13393650D01*
X18853839Y-13393650D02*
X18834791Y-13365079D01*
X18834791Y-13365079D02*
X18825268Y-13346031D01*
X18825268Y-13346031D02*
X18815744Y-13317460D01*
X18815744Y-13317460D02*
X18806220Y-13269841D01*
X18806220Y-13269841D02*
X18806220Y-13231746D01*
X18806220Y-13231746D02*
X18815744Y-13184127D01*
X18815744Y-13184127D02*
X18825268Y-13155555D01*
X18825268Y-13155555D02*
X18834791Y-13136508D01*
X18834791Y-13136508D02*
X18853839Y-13107936D01*
X18853839Y-13107936D02*
X18863363Y-13098412D01*
X19025268Y-13126984D02*
X18987172Y-13126984D01*
X18987172Y-13126984D02*
X18968125Y-13136508D01*
X18968125Y-13136508D02*
X18958601Y-13146031D01*
X18958601Y-13146031D02*
X18939553Y-13174603D01*
X18939553Y-13174603D02*
X18930030Y-13212698D01*
X18930030Y-13212698D02*
X18930030Y-13288888D01*
X18930030Y-13288888D02*
X18939553Y-13307936D01*
X18939553Y-13307936D02*
X18949077Y-13317460D01*
X18949077Y-13317460D02*
X18968125Y-13326984D01*
X18968125Y-13326984D02*
X19006220Y-13326984D01*
X19006220Y-13326984D02*
X19025268Y-13317460D01*
X19025268Y-13317460D02*
X19034791Y-13307936D01*
X19034791Y-13307936D02*
X19044315Y-13288888D01*
X19044315Y-13288888D02*
X19044315Y-13241269D01*
X19044315Y-13241269D02*
X19034791Y-13222222D01*
X19034791Y-13222222D02*
X19025268Y-13212698D01*
X19025268Y-13212698D02*
X19006220Y-13203174D01*
X19006220Y-13203174D02*
X18968125Y-13203174D01*
X18968125Y-13203174D02*
X18949077Y-13212698D01*
X18949077Y-13212698D02*
X18939553Y-13222222D01*
X18939553Y-13222222D02*
X18930030Y-13241269D01*
X19282411Y-13326984D02*
X19282411Y-13126984D01*
X19368125Y-13326984D02*
X19368125Y-13222222D01*
X19368125Y-13222222D02*
X19358601Y-13203174D01*
X19358601Y-13203174D02*
X19339553Y-13193650D01*
X19339553Y-13193650D02*
X19310982Y-13193650D01*
X19310982Y-13193650D02*
X19291934Y-13203174D01*
X19291934Y-13203174D02*
X19282411Y-13212698D01*
X19491934Y-13326984D02*
X19472887Y-13317460D01*
X19472887Y-13317460D02*
X19463363Y-13307936D01*
X19463363Y-13307936D02*
X19453839Y-13288888D01*
X19453839Y-13288888D02*
X19453839Y-13231746D01*
X19453839Y-13231746D02*
X19463363Y-13212698D01*
X19463363Y-13212698D02*
X19472887Y-13203174D01*
X19472887Y-13203174D02*
X19491934Y-13193650D01*
X19491934Y-13193650D02*
X19520506Y-13193650D01*
X19520506Y-13193650D02*
X19539553Y-13203174D01*
X19539553Y-13203174D02*
X19549077Y-13212698D01*
X19549077Y-13212698D02*
X19558601Y-13231746D01*
X19558601Y-13231746D02*
X19558601Y-13288888D01*
X19558601Y-13288888D02*
X19549077Y-13307936D01*
X19549077Y-13307936D02*
X19539553Y-13317460D01*
X19539553Y-13317460D02*
X19520506Y-13326984D01*
X19520506Y-13326984D02*
X19491934Y-13326984D01*
X19672887Y-13326984D02*
X19653839Y-13317460D01*
X19653839Y-13317460D02*
X19644315Y-13298412D01*
X19644315Y-13298412D02*
X19644315Y-13126984D01*
X19825268Y-13317460D02*
X19806220Y-13326984D01*
X19806220Y-13326984D02*
X19768125Y-13326984D01*
X19768125Y-13326984D02*
X19749077Y-13317460D01*
X19749077Y-13317460D02*
X19739553Y-13298412D01*
X19739553Y-13298412D02*
X19739553Y-13222222D01*
X19739553Y-13222222D02*
X19749077Y-13203174D01*
X19749077Y-13203174D02*
X19768125Y-13193650D01*
X19768125Y-13193650D02*
X19806220Y-13193650D01*
X19806220Y-13193650D02*
X19825268Y-13203174D01*
X19825268Y-13203174D02*
X19834792Y-13222222D01*
X19834792Y-13222222D02*
X19834792Y-13241269D01*
X19834792Y-13241269D02*
X19739553Y-13260317D01*
X19910982Y-13317460D02*
X19930030Y-13326984D01*
X19930030Y-13326984D02*
X19968125Y-13326984D01*
X19968125Y-13326984D02*
X19987173Y-13317460D01*
X19987173Y-13317460D02*
X19996696Y-13298412D01*
X19996696Y-13298412D02*
X19996696Y-13288888D01*
X19996696Y-13288888D02*
X19987173Y-13269841D01*
X19987173Y-13269841D02*
X19968125Y-13260317D01*
X19968125Y-13260317D02*
X19939553Y-13260317D01*
X19939553Y-13260317D02*
X19920506Y-13250793D01*
X19920506Y-13250793D02*
X19910982Y-13231746D01*
X19910982Y-13231746D02*
X19910982Y-13222222D01*
X19910982Y-13222222D02*
X19920506Y-13203174D01*
X19920506Y-13203174D02*
X19939553Y-13193650D01*
X19939553Y-13193650D02*
X19968125Y-13193650D01*
X19968125Y-13193650D02*
X19987173Y-13203174D01*
X20063363Y-13403174D02*
X20072887Y-13393650D01*
X20072887Y-13393650D02*
X20091934Y-13365079D01*
X20091934Y-13365079D02*
X20101458Y-13346031D01*
X20101458Y-13346031D02*
X20110982Y-13317460D01*
X20110982Y-13317460D02*
X20120506Y-13269841D01*
X20120506Y-13269841D02*
X20120506Y-13231746D01*
X20120506Y-13231746D02*
X20110982Y-13184127D01*
X20110982Y-13184127D02*
X20101458Y-13155555D01*
X20101458Y-13155555D02*
X20091934Y-13136508D01*
X20091934Y-13136508D02*
X20072887Y-13107936D01*
X20072887Y-13107936D02*
X20063363Y-13098412D01*
M02*
