G04 #@! TF.GenerationSoftware,KiCad,Pcbnew,9.0.1*
G04 #@! TF.CreationDate,2025-07-29T22:46:59+03:00*
G04 #@! TF.ProjectId,Ras pi hat,52617320-7069-4206-9861-742e6b696361,rev?*
G04 #@! TF.SameCoordinates,Original*
G04 #@! TF.FileFunction,Soldermask,Bot*
G04 #@! TF.FilePolarity,Negative*
%FSLAX46Y46*%
G04 Gerber Fmt 4.6, Leading zero omitted, Abs format (unit mm)*
G04 Created by KiCad (PCBNEW 9.0.1) date 2025-07-29 22:46:59*
%MOMM*%
%LPD*%
G01*
G04 APERTURE LIST*
G04 Aperture macros list*
%AMRoundRect*
0 Rectangle with rounded corners*
0 $1 Rounding radius*
0 $2 $3 $4 $5 $6 $7 $8 $9 X,Y pos of 4 corners*
0 Add a 4 corners polygon primitive as box body*
4,1,4,$2,$3,$4,$5,$6,$7,$8,$9,$2,$3,0*
0 Add four circle primitives for the rounded corners*
1,1,$1+$1,$2,$3*
1,1,$1+$1,$4,$5*
1,1,$1+$1,$6,$7*
1,1,$1+$1,$8,$9*
0 Add four rect primitives between the rounded corners*
20,1,$1+$1,$2,$3,$4,$5,0*
20,1,$1+$1,$4,$5,$6,$7,0*
20,1,$1+$1,$6,$7,$8,$9,0*
20,1,$1+$1,$8,$9,$2,$3,0*%
G04 Aperture macros list end*
%ADD10R,1.700000X1.700000*%
%ADD11C,1.700000*%
%ADD12RoundRect,0.250000X0.550000X-0.550000X0.550000X0.550000X-0.550000X0.550000X-0.550000X-0.550000X0*%
%ADD13C,1.600000*%
%ADD14RoundRect,0.250000X1.050000X1.050000X-1.050000X1.050000X-1.050000X-1.050000X1.050000X-1.050000X0*%
%ADD15C,2.600000*%
%ADD16RoundRect,0.250000X1.050000X-1.050000X1.050000X1.050000X-1.050000X1.050000X-1.050000X-1.050000X0*%
%ADD17RoundRect,0.250000X-1.050000X-1.050000X1.050000X-1.050000X1.050000X1.050000X-1.050000X1.050000X0*%
G04 APERTURE END LIST*
D10*
G04 #@! TO.C,J6*
X192786000Y-82550000D03*
D11*
X195326000Y-82550000D03*
G04 #@! TD*
D10*
G04 #@! TO.C,J7*
X192786000Y-75946000D03*
D11*
X195326000Y-75946000D03*
G04 #@! TD*
D12*
G04 #@! TO.C,U1*
X174498000Y-101087000D03*
D13*
X177038000Y-101087000D03*
X179578000Y-101087000D03*
X182118000Y-101087000D03*
X184658000Y-101087000D03*
X187198000Y-101087000D03*
X189738000Y-101087000D03*
X192278000Y-101087000D03*
X192278000Y-93467000D03*
X189738000Y-93467000D03*
X187198000Y-93467000D03*
X184658000Y-93467000D03*
X182118000Y-93467000D03*
X179578000Y-93467000D03*
X177038000Y-93467000D03*
X174498000Y-93467000D03*
G04 #@! TD*
D14*
G04 #@! TO.C,J10*
X192278000Y-110236000D03*
D15*
X187198000Y-110236000D03*
G04 #@! TD*
D16*
G04 #@! TO.C,J8*
X162173500Y-100081000D03*
D15*
X162173500Y-95001000D03*
G04 #@! TD*
D17*
G04 #@! TO.C,J9*
X174234000Y-110103500D03*
D15*
X179314000Y-110103500D03*
G04 #@! TD*
D10*
G04 #@! TO.C,J1*
X172720000Y-54356000D03*
D11*
X175260000Y-54356000D03*
X177800000Y-54356000D03*
X180340000Y-54356000D03*
G04 #@! TD*
D10*
G04 #@! TO.C,J2*
X200914000Y-55372000D03*
D11*
X203454000Y-55372000D03*
X200914000Y-57912000D03*
X203454000Y-57912000D03*
X200914000Y-60452000D03*
X203454000Y-60452000D03*
X200914000Y-62992000D03*
X203454000Y-62992000D03*
X200914000Y-65532000D03*
X203454000Y-65532000D03*
X200914000Y-68072000D03*
X203454000Y-68072000D03*
X200914000Y-70612000D03*
X203454000Y-70612000D03*
X200914000Y-73152000D03*
X203454000Y-73152000D03*
X200914000Y-75692000D03*
X203454000Y-75692000D03*
X200914000Y-78232000D03*
X203454000Y-78232000D03*
X200914000Y-80772000D03*
X203454000Y-80772000D03*
X200914000Y-83312000D03*
X203454000Y-83312000D03*
X200914000Y-85852000D03*
X203454000Y-85852000D03*
X200914000Y-88392000D03*
X203454000Y-88392000D03*
X200914000Y-90932000D03*
X203454000Y-90932000D03*
X200914000Y-93472000D03*
X203454000Y-93472000D03*
X200914000Y-96012000D03*
X203454000Y-96012000D03*
X200914000Y-98552000D03*
X203454000Y-98552000D03*
X200914000Y-101092000D03*
X203454000Y-101092000D03*
X200914000Y-103632000D03*
X203454000Y-103632000D03*
G04 #@! TD*
M02*
