M48
; DRILL file {KiCad 9.0.1} date 2025-07-29T22:47:00+0300
; FORMAT={-:-/ absolute / metric / decimal}
; #@! TF.CreationDate,2025-07-29T22:47:00+03:00
; #@! TF.GenerationSoftware,Kicad,Pcbnew,9.0.1
; #@! TF.FileFunction,Plated,1,2,PTH
FMAT,2
METRIC
; #@! TA.AperFunction,Plated,PTH,ComponentDrill
T1C0.800
; #@! TA.AperFunction,Plated,PTH,ComponentDrill
T2C1.000
; #@! TA.AperFunction,Plated,PTH,ComponentDrill
T3C1.400
%
G90
G05
T1
X174.498Y-93.467
X174.498Y-101.087
X177.038Y-93.467
X177.038Y-101.087
X179.578Y-93.467
X179.578Y-101.087
X182.118Y-93.467
X182.118Y-101.087
X184.658Y-93.467
X184.658Y-101.087
X187.198Y-93.467
X187.198Y-101.087
X189.738Y-93.467
X189.738Y-101.087
X192.278Y-93.467
X192.278Y-101.087
T2
X172.72Y-54.356
X175.26Y-54.356
X177.8Y-54.356
X180.34Y-54.356
X192.786Y-75.946
X192.786Y-82.55
X195.326Y-75.946
X195.326Y-82.55
X200.914Y-55.372
X200.914Y-57.912
X200.914Y-60.452
X200.914Y-62.992
X200.914Y-65.532
X200.914Y-68.072
X200.914Y-70.612
X200.914Y-73.152
X200.914Y-75.692
X200.914Y-78.232
X200.914Y-80.772
X200.914Y-83.312
X200.914Y-85.852
X200.914Y-88.392
X200.914Y-90.932
X200.914Y-93.472
X200.914Y-96.012
X200.914Y-98.552
X200.914Y-101.092
X200.914Y-103.632
X203.454Y-55.372
X203.454Y-57.912
X203.454Y-60.452
X203.454Y-62.992
X203.454Y-65.532
X203.454Y-68.072
X203.454Y-70.612
X203.454Y-73.152
X203.454Y-75.692
X203.454Y-78.232
X203.454Y-80.772
X203.454Y-83.312
X203.454Y-85.852
X203.454Y-88.392
X203.454Y-90.932
X203.454Y-93.472
X203.454Y-96.012
X203.454Y-98.552
X203.454Y-101.092
X203.454Y-103.632
T3
X162.173Y-95.001
X162.173Y-100.081
X174.234Y-110.103
X179.314Y-110.103
X187.198Y-110.236
X192.278Y-110.236
M30
