G04 #@! TF.GenerationSoftware,KiCad,Pcbnew,9.0.1*
G04 #@! TF.CreationDate,2025-07-29T22:46:59+03:00*
G04 #@! TF.ProjectId,Ras pi hat,52617320-7069-4206-9861-742e6b696361,rev?*
G04 #@! TF.SameCoordinates,Original*
G04 #@! TF.FileFunction,Copper,L2,Bot*
G04 #@! TF.FilePolarity,Positive*
%FSLAX46Y46*%
G04 Gerber Fmt 4.6, Leading zero omitted, Abs format (unit mm)*
G04 Created by KiCad (PCBNEW 9.0.1) date 2025-07-29 22:46:59*
%MOMM*%
%LPD*%
G01*
G04 APERTURE LIST*
G04 Aperture macros list*
%AMRoundRect*
0 Rectangle with rounded corners*
0 $1 Rounding radius*
0 $2 $3 $4 $5 $6 $7 $8 $9 X,Y pos of 4 corners*
0 Add a 4 corners polygon primitive as box body*
4,1,4,$2,$3,$4,$5,$6,$7,$8,$9,$2,$3,0*
0 Add four circle primitives for the rounded corners*
1,1,$1+$1,$2,$3*
1,1,$1+$1,$4,$5*
1,1,$1+$1,$6,$7*
1,1,$1+$1,$8,$9*
0 Add four rect primitives between the rounded corners*
20,1,$1+$1,$2,$3,$4,$5,0*
20,1,$1+$1,$4,$5,$6,$7,0*
20,1,$1+$1,$6,$7,$8,$9,0*
20,1,$1+$1,$8,$9,$2,$3,0*%
G04 Aperture macros list end*
G04 #@! TA.AperFunction,ComponentPad*
%ADD10R,1.700000X1.700000*%
G04 #@! TD*
G04 #@! TA.AperFunction,ComponentPad*
%ADD11C,1.700000*%
G04 #@! TD*
G04 #@! TA.AperFunction,ComponentPad*
%ADD12RoundRect,0.250000X0.550000X-0.550000X0.550000X0.550000X-0.550000X0.550000X-0.550000X-0.550000X0*%
G04 #@! TD*
G04 #@! TA.AperFunction,ComponentPad*
%ADD13C,1.600000*%
G04 #@! TD*
G04 #@! TA.AperFunction,ComponentPad*
%ADD14RoundRect,0.250000X1.050000X1.050000X-1.050000X1.050000X-1.050000X-1.050000X1.050000X-1.050000X0*%
G04 #@! TD*
G04 #@! TA.AperFunction,ComponentPad*
%ADD15C,2.600000*%
G04 #@! TD*
G04 #@! TA.AperFunction,ComponentPad*
%ADD16RoundRect,0.250000X1.050000X-1.050000X1.050000X1.050000X-1.050000X1.050000X-1.050000X-1.050000X0*%
G04 #@! TD*
G04 #@! TA.AperFunction,ComponentPad*
%ADD17RoundRect,0.250000X-1.050000X-1.050000X1.050000X-1.050000X1.050000X1.050000X-1.050000X1.050000X0*%
G04 #@! TD*
G04 APERTURE END LIST*
D10*
G04 #@! TO.P,J6,1,Pin_1*
G04 #@! TO.N,Motor S1*
X192786000Y-82550000D03*
D11*
G04 #@! TO.P,J6,2,Pin_2*
G04 #@! TO.N,Net-(J2-MISO_SPI0{slash}GPIO09)*
X195326000Y-82550000D03*
G04 #@! TD*
D10*
G04 #@! TO.P,J7,1,Pin_1*
G04 #@! TO.N,Motor S2*
X192786000Y-75946000D03*
D11*
G04 #@! TO.P,J7,2,Pin_2*
G04 #@! TO.N,Net-(J2-MOSI_SPI0{slash}GPIO10)*
X195326000Y-75946000D03*
G04 #@! TD*
D12*
G04 #@! TO.P,U1,1,EN1\u002C2*
G04 #@! TO.N,Motor S1*
X174498000Y-101087000D03*
D13*
G04 #@! TO.P,U1,2,1A*
G04 #@! TO.N,IN 1*
X177038000Y-101087000D03*
G04 #@! TO.P,U1,3,1Y*
G04 #@! TO.N,Net-(J9-Pin_1)*
X179578000Y-101087000D03*
G04 #@! TO.P,U1,4,GND*
G04 #@! TO.N,GND*
X182118000Y-101087000D03*
G04 #@! TO.P,U1,5,GND*
X184658000Y-101087000D03*
G04 #@! TO.P,U1,6,2Y*
G04 #@! TO.N,Net-(J9-Pin_2)*
X187198000Y-101087000D03*
G04 #@! TO.P,U1,7,2A*
G04 #@! TO.N,IN 2*
X189738000Y-101087000D03*
G04 #@! TO.P,U1,8,VCC2*
G04 #@! TO.N,Net-(J8-Pin_2)*
X192278000Y-101087000D03*
G04 #@! TO.P,U1,9,EN3\u002C4*
G04 #@! TO.N,Motor S2*
X192278000Y-93467000D03*
G04 #@! TO.P,U1,10,3A*
G04 #@! TO.N,IN 3*
X189738000Y-93467000D03*
G04 #@! TO.P,U1,11,3Y*
G04 #@! TO.N,Net-(J10-Pin_1)*
X187198000Y-93467000D03*
G04 #@! TO.P,U1,12,GND*
G04 #@! TO.N,GND*
X184658000Y-93467000D03*
G04 #@! TO.P,U1,13,GND*
X182118000Y-93467000D03*
G04 #@! TO.P,U1,14,4Y*
G04 #@! TO.N,Net-(J10-Pin_2)*
X179578000Y-93467000D03*
G04 #@! TO.P,U1,15,4A*
G04 #@! TO.N,IN 4*
X177038000Y-93467000D03*
G04 #@! TO.P,U1,16,VCC1*
G04 #@! TO.N,Net-(U1-VCC1)*
X174498000Y-93467000D03*
G04 #@! TD*
D14*
G04 #@! TO.P,J10,1,Pin_1*
G04 #@! TO.N,Net-(J10-Pin_1)*
X192278000Y-110236000D03*
D15*
G04 #@! TO.P,J10,2,Pin_2*
G04 #@! TO.N,Net-(J10-Pin_2)*
X187198000Y-110236000D03*
G04 #@! TD*
D16*
G04 #@! TO.P,J8,1,Pin_1*
G04 #@! TO.N,GND*
X162173500Y-100081000D03*
D15*
G04 #@! TO.P,J8,2,Pin_2*
G04 #@! TO.N,Net-(J8-Pin_2)*
X162173500Y-95001000D03*
G04 #@! TD*
D17*
G04 #@! TO.P,J9,1,Pin_1*
G04 #@! TO.N,Net-(J9-Pin_1)*
X174234000Y-110103500D03*
D15*
G04 #@! TO.P,J9,2,Pin_2*
G04 #@! TO.N,Net-(J9-Pin_2)*
X179314000Y-110103500D03*
G04 #@! TD*
D10*
G04 #@! TO.P,J1,1,Pin_1*
G04 #@! TO.N,Net-(J1-Pin_1)*
X172720000Y-54356000D03*
D11*
G04 #@! TO.P,J1,2,Pin_2*
G04 #@! TO.N,Net-(J1-Pin_2)*
X175260000Y-54356000D03*
G04 #@! TO.P,J1,3,Pin_3*
G04 #@! TO.N,Net-(J1-Pin_3)*
X177800000Y-54356000D03*
G04 #@! TO.P,J1,4,Pin_4*
G04 #@! TO.N,GND*
X180340000Y-54356000D03*
G04 #@! TD*
D10*
G04 #@! TO.P,J2,1,3V3*
G04 #@! TO.N,Net-(J1-Pin_1)*
X200914000Y-55372000D03*
D11*
G04 #@! TO.P,J2,2,5V*
G04 #@! TO.N,Net-(U1-VCC1)*
X203454000Y-55372000D03*
G04 #@! TO.P,J2,3,SDA_I2C1/GPIO02*
G04 #@! TO.N,unconnected-(J2-SDA_I2C1{slash}GPIO02-Pad3)*
X200914000Y-57912000D03*
G04 #@! TO.P,J2,4,5V*
G04 #@! TO.N,Net-(U1-VCC1)*
X203454000Y-57912000D03*
G04 #@! TO.P,J2,5,SCL_I2C1/GPIO03*
G04 #@! TO.N,unconnected-(J2-SCL_I2C1{slash}GPIO03-Pad5)*
X200914000Y-60452000D03*
G04 #@! TO.P,J2,6,GND*
G04 #@! TO.N,GND*
X203454000Y-60452000D03*
G04 #@! TO.P,J2,7,GPCLK0/GPIO04*
G04 #@! TO.N,IN 1*
X200914000Y-62992000D03*
G04 #@! TO.P,J2,8,GPIO14/UART_TXD*
G04 #@! TO.N,Net-(J1-Pin_2)*
X203454000Y-62992000D03*
G04 #@! TO.P,J2,9,GND*
G04 #@! TO.N,GND*
X200914000Y-65532000D03*
G04 #@! TO.P,J2,10,GPIO15/UART_RXD*
G04 #@! TO.N,Net-(J1-Pin_3)*
X203454000Y-65532000D03*
G04 #@! TO.P,J2,11,GPIO17/SPI1_~{CE1}*
G04 #@! TO.N,unconnected-(J2-GPIO17{slash}SPI1_~{CE1}-Pad11)*
X200914000Y-68072000D03*
G04 #@! TO.P,J2,12,GPIO18/SPI1_~{CE0}/PCM_CLK/PWM0*
G04 #@! TO.N,unconnected-(J2-GPIO18{slash}SPI1_~{CE0}{slash}PCM_CLK{slash}PWM0-Pad12)*
X203454000Y-68072000D03*
G04 #@! TO.P,J2,13,GPIO27/SDIO_DAT3*
G04 #@! TO.N,unconnected-(J2-GPIO27{slash}SDIO_DAT3-Pad13)*
X200914000Y-70612000D03*
G04 #@! TO.P,J2,14,GND*
G04 #@! TO.N,GND*
X203454000Y-70612000D03*
G04 #@! TO.P,J2,15,GPIO22/SDIO_CLK*
G04 #@! TO.N,unconnected-(J2-GPIO22{slash}SDIO_CLK-Pad15)*
X200914000Y-73152000D03*
G04 #@! TO.P,J2,16,GPIO23/SDIO_CMD*
G04 #@! TO.N,unconnected-(J2-GPIO23{slash}SDIO_CMD-Pad16)*
X203454000Y-73152000D03*
G04 #@! TO.P,J2,17,3V3*
G04 #@! TO.N,Net-(J1-Pin_1)*
X200914000Y-75692000D03*
G04 #@! TO.P,J2,18,GPIO24/SDIO_DAT0*
G04 #@! TO.N,unconnected-(J2-GPIO24{slash}SDIO_DAT0-Pad18)*
X203454000Y-75692000D03*
G04 #@! TO.P,J2,19,MOSI_SPI0/GPIO10*
G04 #@! TO.N,Net-(J2-MOSI_SPI0{slash}GPIO10)*
X200914000Y-78232000D03*
G04 #@! TO.P,J2,20,GND*
G04 #@! TO.N,GND*
X203454000Y-78232000D03*
G04 #@! TO.P,J2,21,MISO_SPI0/GPIO09*
G04 #@! TO.N,Net-(J2-MISO_SPI0{slash}GPIO09)*
X200914000Y-80772000D03*
G04 #@! TO.P,J2,22,GPIO25/SDIO_DAT1*
G04 #@! TO.N,unconnected-(J2-GPIO25{slash}SDIO_DAT1-Pad22)*
X203454000Y-80772000D03*
G04 #@! TO.P,J2,23,SCLK_SPI0/GPIO11*
G04 #@! TO.N,unconnected-(J2-SCLK_SPI0{slash}GPIO11-Pad23)*
X200914000Y-83312000D03*
G04 #@! TO.P,J2,24,~{CE0}_SPI0/GPIO08*
G04 #@! TO.N,unconnected-(J2-~{CE0}_SPI0{slash}GPIO08-Pad24)*
X203454000Y-83312000D03*
G04 #@! TO.P,J2,25,GND*
G04 #@! TO.N,GND*
X200914000Y-85852000D03*
G04 #@! TO.P,J2,26,~{CE1}_SPI0/GPIO07*
G04 #@! TO.N,IN 4*
X203454000Y-85852000D03*
G04 #@! TO.P,J2,27,ID_SD_I2C0/GPIO00*
G04 #@! TO.N,unconnected-(J2-ID_SD_I2C0{slash}GPIO00-Pad27)*
X200914000Y-88392000D03*
G04 #@! TO.P,J2,28,ID_SC_I2C0/GPIO01*
G04 #@! TO.N,unconnected-(J2-ID_SC_I2C0{slash}GPIO01-Pad28)*
X203454000Y-88392000D03*
G04 #@! TO.P,J2,29,GPCLK1/GPIO05*
G04 #@! TO.N,IN 2*
X200914000Y-90932000D03*
G04 #@! TO.P,J2,30,GND*
G04 #@! TO.N,GND*
X203454000Y-90932000D03*
G04 #@! TO.P,J2,31,GPCLK2/GPIO06*
G04 #@! TO.N,IN 3*
X200914000Y-93472000D03*
G04 #@! TO.P,J2,32,GPIO12/PWM0*
G04 #@! TO.N,unconnected-(J2-GPIO12{slash}PWM0-Pad32)*
X203454000Y-93472000D03*
G04 #@! TO.P,J2,33,GPIO13/PWM1*
G04 #@! TO.N,unconnected-(J2-GPIO13{slash}PWM1-Pad33)*
X200914000Y-96012000D03*
G04 #@! TO.P,J2,34,GND*
G04 #@! TO.N,GND*
X203454000Y-96012000D03*
G04 #@! TO.P,J2,35,GPIO19/SPI1_MISO/PCM_FS*
G04 #@! TO.N,unconnected-(J2-GPIO19{slash}SPI1_MISO{slash}PCM_FS-Pad35)*
X200914000Y-98552000D03*
G04 #@! TO.P,J2,36,GPIO16/SPI1_~{CE2}*
G04 #@! TO.N,unconnected-(J2-GPIO16{slash}SPI1_~{CE2}-Pad36)*
X203454000Y-98552000D03*
G04 #@! TO.P,J2,37,GPIO26/SDIO_DAT2*
G04 #@! TO.N,unconnected-(J2-GPIO26{slash}SDIO_DAT2-Pad37)*
X200914000Y-101092000D03*
G04 #@! TO.P,J2,38,GPIO20/SPI1_MOSI/PCM_DIN/PWM1*
G04 #@! TO.N,unconnected-(J2-GPIO20{slash}SPI1_MOSI{slash}PCM_DIN{slash}PWM1-Pad38)*
X203454000Y-101092000D03*
G04 #@! TO.P,J2,39,GND*
G04 #@! TO.N,GND*
X200914000Y-103632000D03*
G04 #@! TO.P,J2,40,GPIO21/SPI1_SCLK/PCM_DOUT*
G04 #@! TO.N,unconnected-(J2-GPIO21{slash}SPI1_SCLK{slash}PCM_DOUT-Pad40)*
X203454000Y-103632000D03*
G04 #@! TD*
M02*
